<svg xmlns="http://www.w3.org/2000/svg" xmlns:xlink="http://www.w3.org/1999/xlink" width="126" height="131" viewBox="0 0 126 131">
    <defs>
        <path id="a" d="M0 56.143V.307h30.761v55.836z"/>
    </defs>
    <g fill="none" fill-rule="evenodd">
        <g transform="translate(.6 45.277)">
            <mask id="b" fill="#fff">
                <use xlink:href="#a"/>
            </mask>
            <path fill="#FFF" d="M28.502 33.511c.871.246 1.468-.22 1.919-.914.442-.682.474-1.391-.03-2.037-.344-.44-.723-.92-1.196-1.181-2.003-1.109-4.02-2.2-6.092-3.172-.72-.337-.948-.695-.826-1.415.5-2.944.782-5.942 1.525-8.822 1.227-4.755 2.751-9.434 4.142-14.148.125-.423.19-.864.283-1.297l-.272-.218c-.784.355-1.676.58-2.314 1.11-1.167.97-2.318 2.023-3.224 3.231-2.638 3.52-4.315 7.555-5.878 11.63-.806 2.102-1.534 4.233-2.326 6.432l-3.321-1.493c-.017-.196-.045-.268-.025-.325.14-.408.293-.812.436-1.22 1.185-3.365 2.237-6.756 2.131-10.387-.128-4.415-2.875-7.26-7.295-7.545-1.465-.095-1.7.078-1.803 1.522-.105 1.493-.217 2.99-.207 4.485.024 3.62.118 7.237.186 10.924-.243.015-.568.03-.893.053-1.948.139-3.163 1.194-3.408 3.62-.245 2.427 2.817 4.682 2.817 4.682s1.837 5.691 2.685 6.43c.172.15.39.15.562.002.325-.283.895-.55 1.221-2.108.13-.622.286-1.945.402-2.744 1.765-.016 3.358.315 4.812 1.21.52.32.69.726.519 1.345-.388 1.407-.834 2.796-1.165 4.216-1.118 4.804-2.052 9.615-1.574 14.608.254 2.652 1.447 4.502 3.93 5.32 1.397.46 2.92.593 4.4.726 2.84.256 2.986.34 2.892-2.793-.112-3.687-.581-7.362-.793-11.047-.185-3.224-.207-6.454.505-9.64.162-.729.539-1.044 1.278-.84.958.261 1.92.514 2.87.803 1.047.317 2.074.7 3.127.997" mask="url(#b)"/>
        </g>
        <path fill="#FFF" d="M48.379 105.908c-1.29-1.58-2.819-2.837-5.007-2.928-1.078-.046-1.914.329-2.212 1.426-.268.985-.597 1.997-.61 3-.063 5.19 1.123 10.146 3.102 14.913 1.037 2.498 2.4 4.83 4.48 6.633 1.885 1.634 4.069.958 4.73-1.448.524-1.91.554-3.968.66-5.962-.093-1.092-.138-2.19-.29-3.275-.625-4.505-1.92-8.765-4.853-12.359M47.996 28.206c.196.02.5-.079.603-.227a573.28 573.28 0 0 0 3.92-5.746c-.467-.139-7.132-.303-5.16-4.402 1.46-3.03 7.278-2.854 9.429-2.704a.958.958 0 0 0 .868-.43c.571-.867 1.799-2.709 2.565-3.719.274-.361.458-.692.829-1.282-3.168-.392-18.27-2.414-22.84 6.515-3.906 9.968 6.696 11.66 9.786 11.995M49.956 28.29c1.203 0 2.193-.074 3.166.021 1.002.099 1.565-.319 2.11-1.113 5.025-7.33 10.092-14.63 15.126-21.954.36-.524.725-.748 1.373-.736 2.332.04 4.664.025 6.996.005.345-.003.805-.032 1.014-.245 1.019-1.035 1.97-2.136 3.106-3.392-.444-.042-.607-.07-.77-.07-4.264-.002-8.528-.024-12.79.032-.417.006-.966.396-1.22.767-5.853 8.537-11.674 17.095-17.499 25.652-.177.261-.323.543-.612 1.033"/>
        <path fill="#FFF" d="M45.223 81.573c-.213 1.569-.373 3.149-.701 4.693-.288 1.354-.896 1.605-2.21 1.227-1.814-.521-2.57-1.762-2.237-4.069.26-1.801.671-3.588 1.143-5.346.109-.402.717-.888 1.147-.945.937-.123 1.951.984 2.48 1.971.208.389.34.816.393 1.254a4.767 4.767 0 0 1-.014 1.214m10.004 10.96c-.306-.131-.62-.241-.927-.367-1.076-.44-2.156-.871-3.224-1.33-.794-.34-1.19-.945-1.045-1.828.22-1.342.438-2.685.694-4.021.547-2.866 1.36-5.69 1.156-8.664-.047-.684-.272-1.157-.82-1.472a352.234 352.234 0 0 0-6.414-3.626c-.71-.388-1.494-.64-1.992-.849.517-2.539 1.126-4.881 1.437-7.263.249-1.9.043-3.742-1.965-4.907-2.373-1.376-4.898-2.208-7.584-2.603-.714-.106-1.473-.176-2.17-.043-.518.099-1.325.507-1.368.857-.07.556.224 1.4.66 1.724.887.66 1.93 1.185 2.986 1.514.903.282 1.354.76 1.268 1.612-.178 1.741-.452 3.473-.712 5.205-.113.752-.62.92-1.245.63-.994-.463-1.937-1.036-2.94-1.471a16.252 16.252 0 0 0-2.62-.872c-.497-.121-.968.114-.89.753.15 1.268.126 2.616.576 3.775.882 2.272 2.915 3.37 5.084 4.18.613.229 1.027.528 1.138 1.212a19.192 19.192 0 0 1-.216 7.426c-.151.664-.453 1.094-1.214.702-.32-.166-4.688-2.202-6.612-2.883-1.242-.44-2.143.153-2.524 1.411-.133.44-.254.922-.209 1.368.216 2.142.532 4.274.727 6.417.094 1.037.671 1.377 1.57 1.579 1.26.283 2.52.603 3.736 1.03.868.306 1.414.898 1.161 1.996-1.374 5.96-2.416 11.982-2.903 18.082-.26 3.247-.278 6.511.438 10.04.42-.468.713-.726.922-1.039.813-1.216 1.72-2.389 2.373-3.688 3.222-6.407 5.3-13.173 6.072-20.316.089-.814.375-1.252 1.24-1.129.686.098 1.414.098 2.05.337 2.518.943 4.988 2.015 7.513 2.939 2.894 1.06 5.828 2.01 8.741 3.016.775.268 1.112-.051 1.197-.8.097-.859.242-1.713.315-2.572.359-4.23-.688-4.867-3.46-6.062"/>
        <path fill="#FFF" d="M125.354 25.654c-.226-.06-.677-.073-.89-.017-3.115.817-6.313 1.415-9.32 2.53-10.691 3.96-21.221 8.36-31.955 12.203-7.476 2.676-18.63 3.871-25.756 3.167-2.384-.235-4.862-.636-7.06-1.542-9.194-3.786-18.324-7.73-27.425-11.736-5.586-2.46-18.455-6.22-18.59-5.546-.135.674 6.351 4.353 9.335 5.627 11.681 4.988 23.42 9.843 35.147 14.725C54.303 47.339 58.666 51 62.289 55.6c1.1 1.396 1.622 3.011 1.628 4.818.066 17.655.117 35.31.266 52.964.025 2.977 1.236 11.422 1.67 12.722l.373-.008c.671-1.727 1.326-7.583 1.342-10.857.091-18.321.036-36.643.067-54.964.002-.97.177-2.007.551-2.896 2.35-5.581 6.516-9.592 11.928-11.936 8.843-3.83 17.87-7.24 26.859-10.727 5.992-2.324 11.898-4.814 17.472-8.033.346-.2.758-.52.974-.877a.104.104 0 0 0-.065-.153"/>
        <path fill="#FFF" d="M113.262 71.568c-2.662-.007-5.209.56-7.728 1.336-.392.12-.797.203-1.465.372l18.966-34.482c-.463.13-24.865 10.143-36.839 15.208-1.373.581-2.62 1.724-3.617 2.874-2.354 2.718-2.679 6.134-2.836 9.558-.03.662.329.85.878.696 1.467-.413 2.967-.756 4.375-1.32 6.573-2.636 13.119-5.337 19.841-8.083-.529 1.457-6.7 12.003-10.003 17.43-1.169 1.92-.994 3.84-.977 5.856a1.022 1.022 0 0 0 1.177 1.008l.011-.002c5.581-.888 13.249 4.162 12.711 11.43-.126 1.696-.242 3.567-1.012 5.011a53.859 53.859 0 0 1-7.92 11.122c-5.572 6.052-11.216 12.039-16.832 18.051-1.004 1.076-2.017 2.143-3.025 3.214.337.074.548 0 .748-.098 12.503-6.073 23.855-13.77 33.6-23.749 4.085-4.184 7.636-8.69 9.45-14.375 1.455-4.565 2.064-9.121.51-13.79-1.695-5.092-4.674-7.254-10.013-7.267M94.118 19.348c-2.206 4.252-10.883 4.08-14.716 3.28 1.501-2.215 3.246-5.279 4.627-7.265.639-.112 12.746-1.138 10.089 3.985M76.72 9.902c-.952-.015-1.703.11-2.232.878-5.61 8.145-11.018 16.178-16.654 24.305-.288.417-.562.844-.945 1.421-.021.031 0 .076.038.08.406.05.641.096.877.097 4.266.005 8.532.021 12.798-.026.407-.004.95-.316 1.192-.654 1.7-2.386 3.354-4.806 4.984-7.24.345-.515 22.082 2.58 26.547-8.212 4.09-9.885-11.267-10.544-16.008-10.616-3.532-.053-7.066.024-10.597-.033"/>
        <path fill="#FFF" d="M72.647 5.33c-.398.006-.924.366-1.165.716-5.846 8.499-11.661 17.018-17.478 25.537-.155.228-.258.491-.472.905 1.287 0 2.382-.052 3.47.018.834.053 1.326-.26 1.793-.94 4.96-7.21 9.96-14.393 14.92-21.604.467-.68.956-.964 1.789-.941 2.163.057 4.329.031 6.493.006.379-.005.87-.045 1.114-.276 1.058-1.002 2.043-2.08 3.213-3.295-.415-.082-.602-.151-.789-.151-4.296-.007-8.593-.025-12.888.026"/>
        <path d="M-17-14h160v160H-17z"/>
    </g>
</svg>
