<?xml version="1.0" encoding="utf-8"?>
<!-- Generator: Adobe Illustrator 22.0.1, SVG Export Plug-In . SVG Version: 6.00 Build 0)  -->
<svg version="1.1" id="圖層_1" xmlns="http://www.w3.org/2000/svg" xmlns:xlink="http://www.w3.org/1999/xlink" x="0px" y="0px"
	 viewBox="0 0 133 115" style="enable-background:new 0 0 133 115;" xml:space="preserve">
<style type="text/css">
	.st0{fill:#FFFFFF;}
</style>
<g>
	<path class="st0" d="M87.4,24.6c-11.6,0-22.8,4.5-31.2,12.5l-1,1c-5,4.9-5.1,12.8-0.3,17.8s12.8,5.1,17.8,0.3
		c0.1-0.1,0.1-0.1,0.2-0.2l2.2-2.3c0.6-0.9,1.4-1.6,2.2-2.4c3.9-3.5,9.1-5.1,14.3-4.8c5.7,0.3,13.2,2.5,19.2,10
		c3.9,4.9,4.7,10.8,4.3,16.3c-0.8,10.6-6.5,20.2-14.9,26.8c-4.3,3.4-9.7,6.3-16.2,7.3c-9.9,1.5-19.2-0.8-25.6-2.4
		c0,0,15.8,11.7,32.4,10.4c22.3-1.8,40.2-19.8,41.7-42.1c1.7-24.9-17.2-46.5-42.1-48.1C89.4,24.6,88.4,24.6,87.4,24.6"/>
	<path class="st0" d="M108.9,1.2C94.1-1.1,85.6,2.3,85.6,2.3c-31.7,9.5-35.1,36.1-35.1,36.1c3.2-3.7,15.7-16.3,28.9-18.7
		c9.4-1.7,19.9-1.2,25.6-0.3c0.5,0.1,1,0.2,1.5,0.4c1.6,0.4,3.3,0.4,4.9,0c3.8-1.1,6.5-4.4,6.9-8.3C118.8,5.9,114.6,1.8,108.9,1.2"
		/>
	<path class="st0" d="M61.2,8.5c0-4.7-3.8-8.5-8.5-8.5c-2.7,0-5.3,1.3-6.9,3.5l0,0c-4.2,4-13.9,19.6-7.9,36s15.8,18.4,15.8,18.4
		c-2.6-2.4-6.1-9.7-6.1-9.7c-5-15.5,6.8-29.2,10.4-32.9C60.1,13.5,61.2,11.1,61.2,8.5"/>
	<path class="st0" d="M30.5,32.3L30.5,32.3c-0.1-4-3.4-7.3-7.4-7.2s-7.3,3.4-7.2,7.4c0,1.6,0.6,3.1,1.5,4.3C29.9,61.6,51,58,51,58
		C33.4,53.4,30.5,32.3,30.5,32.3"/>
	<path class="st0" d="M48.3,61.3c-9.8,0.2-16-2.5-19.5-4.9c-1.4-1-2.6-2.2-3.7-3.5c-1.8-2.1-4.9-2.3-7-0.5c-2.1,1.8-2.3,4.9-0.5,7
		c0.2,0.2,0.4,0.4,0.6,0.6v0c0.1,0,0.1,0.1,0.2,0.1c0.1,0.1,0.3,0.2,0.4,0.3C32,69.1,48.3,61.3,48.3,61.3"/>
	<path class="st0" d="M74.3,60.2v20.6h9.4c0,0,6.2,0,6.2,6.1c0,7-8.6,6.4-8.6,6.4H69.7v8.6h14.1c0,0,14.5-0.7,14.9-14.1
		c0,0,0.5-12.3-11.9-13.9H82v-5.5h17.1v-8.1H74.3z"/>
	<path class="st0" d="M14,70.8L10.1,100c-0.1,0.5-0.5,0.8-0.9,0.8H1.4c-0.5,0-0.9-0.4-0.9-0.9c0-0.1,0-0.1,0-0.2l4.4-18
		c0.1-0.4-0.1-0.7-0.5-0.8c-0.1,0-0.1,0-0.2,0l-2.7,0.2c-0.4,0-0.7-0.3-0.7-0.6c0,0,0-0.1,0-0.1l0.4-4.9c0-0.3,0.2-0.5,0.4-0.6
		l11.5-4.6c0.3-0.1,0.7,0,0.9,0.4C14,70.6,14,70.7,14,70.8"/>
	<path class="st0" d="M31.8,70.8L27.9,100c-0.1,0.5-0.5,0.8-0.9,0.8h-7.8c-0.5,0-0.9-0.4-0.9-0.9c0-0.1,0-0.1,0-0.2l4.4-18
		c0.1-0.4-0.1-0.7-0.5-0.8c-0.1,0-0.1,0-0.2,0l-2.7,0.2c-0.4,0-0.7-0.3-0.7-0.6c0,0,0-0.1,0-0.1l0.4-4.9c0-0.3,0.2-0.5,0.4-0.6
		l11.5-4.6c0.3-0.1,0.7,0,0.9,0.4C31.8,70.6,31.8,70.7,31.8,70.8"/>
	<path class="st0" d="M34.6,94.9l3-13.8h-2.2l0.8-3.7h8l-4,18.1c-0.2,0.8,0.3,1.7,1,1.7h22.9l-0.8,3.7H39
		C32.8,100.9,34.6,94.9,34.6,94.9"/>
	<polygon class="st0" points="44.7,75.9 38.7,75.9 39.2,71.2 45.2,71.2 	"/>
	<polygon class="st0" points="46.4,87.5 42.8,96 48.7,96 52.2,87.5 	"/>
	<path class="st0" d="M67.3,77.5l0.8-3.7h-7.3l0.6-2.6h-5.9l-0.6,2.6h-1.7l0.6-1.8h-5.9l-3.2,9.3h5.9l1.3-3.8h2.2l-1.1,5h-8.6
		l-0.8,3.7H57l-1.7,7.9C55,95.1,55.6,96,56.4,96h7.7l0.8-3.7h-2.7c-0.4,0-0.6-0.4-0.5-0.9l1.1-5.2H66l0.8-3.7h-8l1.1-5L67.3,77.5z"
		/>
</g>
</svg>
