<?xml version="1.0" encoding="utf-8"?>
<!-- Generator: Adobe Illustrator 22.0.1, SVG Export Plug-In . SVG Version: 6.00 Build 0)  -->
<svg version="1.1" id="圖層_1" xmlns="http://www.w3.org/2000/svg" xmlns:xlink="http://www.w3.org/1999/xlink" x="0px" y="0px"
	 viewBox="0 0 150 125.8" style="enable-background:new 0 0 150 125.8;" xml:space="preserve">
<style type="text/css">
	.st0{fill:#FFFFFF;}
</style>
<g>
	<path class="st0" d="M102.9,0.4C92.5,0.4,84,8.9,84,19.3s8.5,18.9,18.9,18.9c10.5,0,18.9-8.5,18.9-18.9
		C121.9,8.9,113.4,0.4,102.9,0.4C102.9,0.4,102.9,0.4,102.9,0.4 M113.2,26c0,3.4-2.1,6.4-5.3,7.7l-0.1,0.1
		c-2.7,1.1-6.6,2.1-10.9,0.7c-7.2-2.3-7.3-9-7.3-9h6.4c0.2,2.2,2.6,4,5.6,4c3.1,0,5.6-1.9,5.6-4.3c0-2.1-2-3.9-4.7-4.2h-3v-4.2h3.9
		c2.3,0,4.3-1.8,4.3-4.1c0-2.3-1.9-4.1-4.3-4.1c-2.1,0-4,1.5-4.3,3.6h-0.3L92.6,12c0,0,3.4-9.2,14-8.4c4.5,0.5,7.9,3.4,7.9,7.6
		c0,3.6-2.6,6.6-6.2,7.4C111.3,19.9,113.1,22.8,113.2,26"/>
	<polygon class="st0" points="70,7.7 75.9,6.4 79.8,36.5 	"/>
	<polygon class="st0" points="61.8,27.5 64.9,25.4 72.3,39.6 	"/>
	<polygon class="st0" points="42,32.6 46.1,27.2 66.1,45.5 	"/>
	<polygon class="st0" points="38.1,95.4 41.2,99.3 60.7,89 	"/>
	<polygon class="st0" points="65.1,93.9 54.1,100 56.9,102.3 	"/>
	<polygon class="st0" points="70.3,97.5 58.7,117 64.3,119.1 	"/>
	<polygon class="st0" points="111.9,47.6 129.2,26.2 133.8,30.6 	"/>
	<polygon class="st0" points="116.3,54.8 130.2,46 132.8,50.9 	"/>
	<polygon class="st0" points="119.1,61.5 150,58.4 149.5,64.5 	"/>
	<path class="st0" d="M88.3,42c-14.2,0-25.8,11.5-25.8,25.8s11.5,25.8,25.8,25.8s25.8-11.5,25.8-25.8S102.5,42,88.3,42L88.3,42
		 M102.7,56.2H86.6V61h4.5c11.8,1.4,11.3,12.1,11.3,12.1C102,84.6,88.3,85.2,88.3,85.2H74.9v-7.5h11c0,0,8.2,0.5,8.2-5.6
		c0-5.2-5.9-5.2-5.9-5.2h-8.9V49.2h23.5L102.7,56.2z"/>
	<path class="st0" d="M40.4,60.5l-3.2,0c0.5-0.7,1-1.5,1.4-2.3c0.4-0.8,0.8-1.5,1.1-2.3h7.9l-0.8-2.7l-1.5,1.3H32l0.5,1.5h2.7
		c-0.3,0.9-0.6,1.9-1,3.1c-0.4,1.1-0.8,2.2-1.4,3.4c-0.5,1.2-1.1,2.3-1.7,3.5c-0.6,1.2-1.3,2.3-1.9,3.4c0.8-0.6,1.7-1.3,2.4-2.1
		c0.8-0.8,1.6-1.6,2.3-2.5c0.1,0.4,0.2,0.8,0.2,1.3c0.1,0.5,0.1,0.9,0.2,1.4c0.1,0.5,0.1,0.9,0.1,1.4c0,0.4,0,0.8,0,1.2l2.7-1.9
		c-1.2,2.1-2.5,4.1-4,6c-1.5,1.9-3.3,3.7-5.2,5.2c1.7-0.5,3.3-1.3,4.8-2.3c1.6-1.1,3.2-2.3,4.5-3.7c1.5-1.5,2.8-3.1,3.9-4.9
		c1.2-1.8,2.1-3.8,2.8-5.8l1.4-1.5l-4.4-1.8L40.4,60.5z M39.2,64.3c-0.3,0.8-0.6,1.5-1,2.3c-0.2-0.5-0.5-1-0.9-1.3
		c-0.7-0.6-1.5-1.1-2.4-1.4c0.5-0.6,1-1.3,1.5-1.9H40C39.7,62.8,39.5,63.5,39.2,64.3"/>
	<polygon class="st0" points="51.8,57.7 50.7,58.6 48.5,72.4 44.6,72.4 47.1,57 	"/>
	<path class="st0" d="M53.4,53l5.1,0.8l-1.1,0.9l-2.7,16.6c-0.4,2.2-1,4-1.8,5.3c-0.8,1.3-2,2.2-3.5,2.7c-0.4,0.2-0.7,0.2-1.1,0.1
		c-0.4-0.1-0.7-0.4-0.8-0.8l-1.7-3.1c0.7,0,1.4,0,2.1-0.1c0.5-0.1,1-0.3,1.3-0.6c0.4-0.4,0.6-0.9,0.8-1.4c0.2-0.8,0.4-1.6,0.5-2.4
		L53.4,53z"/>
	<path class="st0" d="M9.3,60.5L8.6,65c0.4-0.1,0.9-0.2,1.4-0.4l1.5-0.4c-0.4,0.4-0.9,0.8-1.3,1.2c-0.6,0.4-1.2,0.9-1.8,1.4
		l-0.9,5.4c-0.2,1.5-0.6,3-1.3,4.3c-0.6,1.1-1.4,1.9-2.5,2.5c-0.3,0.2-0.7,0.3-1,0.3c-0.4,0-0.7-0.2-0.8-0.5L0,76.1
		c1,0,1.7-0.3,2.2-0.8s0.8-1.5,1.1-2.8l0.5-3l-0.6,0.3C2.9,69.9,2.8,70,2.6,70c-0.2,0-0.4,0-0.6,0c-0.2-0.1-0.2-0.2-0.2-0.6
		l-0.2-3.4c0.4,0,0.9,0.1,1.3,0c0.5,0,1-0.1,1.5-0.1l0.9-5.4H3.4L3,59.2h2.4l1-6.1l5.2,0.6l-1.3,1l-0.7,4.6h0.1l1.3-0.9l1,2.3
		L9.3,60.5z"/>
	<polygon class="st0" points="12.7,73.2 9.2,73.2 8.7,71.9 12.9,71.9 13.8,66.6 11.7,66.6 11.2,65.3 14,65.3 14.8,60.1 12.4,60.1 
		11.9,58.8 15,58.8 16,52.9 21.3,53.6 20,54.4 16,79.5 11.7,79.5 	"/>
	<polygon class="st0" points="22.7,73.2 21.7,79.5 17.4,79.5 21.6,52.9 27,53.6 25.7,54.6 25,58.8 26.1,58.8 27.6,57.7 28.6,60.1 
		24.8,60.1 24,65.3 24.7,65.3 26.1,64.1 27.2,66.6 23.8,66.6 22.9,71.9 24.5,71.9 26,70.8 27,73.2 	"/>
	<polygon class="st0" points="109.1,125.2 113.8,121.9 103.3,98.7 	"/>
	<polygon class="st0" points="109.3,94 115.6,107.2 118.5,104.1 	"/>
	<polygon class="st0" points="113.8,88.3 135.5,103 138.3,96.6 	"/>
</g>
</svg>
