<svg xmlns="http://www.w3.org/2000/svg" width="420" height="420" viewBox="0 0 420 420">
    <g fill="none" fill-rule="evenodd">
        <path d="M0 0h420v420H0z"/>
        <path fill="#2787ED" d="M213.14 54c-29.4 0-53.76 7.98-72.66 24.78-20.16 16.8-31.08 40.32-33.6 70.56h48.3c1.68-18.06 7.56-31.5 17.64-40.32 9.66-8.82 23.1-13.02 40.74-13.02 17.22 0 30.24 3.78 39.06 11.34 7.98 7.56 12.18 18.48 12.18 33.18s-4.62 26.04-13.44 33.6c-9.24 7.56-22.68 11.34-40.32 11.34h-21v36.96h21c19.32 0 34.02 3.78 44.1 12.18 10.08 7.98 15.54 20.58 15.54 37.8 0 14.28-5.04 26.04-14.7 35.7-10.92 10.5-26.04 15.96-44.94 15.96-17.22 0-31.08-5.04-41.58-14.7-11.76-10.5-17.64-25.62-18.48-44.94H101c2.52 33.6 14.28 59.64 35.28 77.28 18.9 15.96 44.1 23.94 75.18 23.94 32.76 0 59.22-9.24 79.38-27.3 19.32-17.64 28.98-40.32 28.98-68.04 0-17.64-5.04-32.34-15.12-43.68-9.24-10.92-23.1-18.9-40.74-24.36 33.18-10.92 49.98-32.76 49.98-65.52 0-26.04-9.24-46.2-27.3-60.9C268.16 61.14 243.38 54 213.14 54z" opacity=".2"/>
    </g>
</svg>
