<?xml version="1.0" encoding="utf-8"?>
<!-- Generator: Adobe Illustrator 22.0.1, SVG Export Plug-In . SVG Version: 6.00 Build 0)  -->
<svg version="1.1" id="圖層_1" xmlns="http://www.w3.org/2000/svg" xmlns:xlink="http://www.w3.org/1999/xlink" x="0px" y="0px"
	 viewBox="0 0 86 86" style="enable-background:new 0 0 86 86;" xml:space="preserve">
<style type="text/css">
	.st0{fill:#FFFFFF;}
	.st1{fill:#EB1E3C;}
</style>
<circle class="st0" cx="43" cy="43" r="43"/>
<g id="圖層_2_1_">
	<g id="圖層_1-2">
		<g id="圖稿_16">
			<polygon class="st1" points="18.6,31.5 22.9,31.5 8.9,56.4 4.6,56.4 			"/>
			<path class="st1" d="M13.7,37.9c0,1.3-1,2.3-2.3,2.3s-2.3-1-2.3-2.3s1-2.3,2.3-2.3c0,0,0,0,0,0C12.6,35.6,13.7,36.6,13.7,37.9"/>
			<path class="st1" d="M46.1,35.3c1.7,0.9,4.2,1.6,7.6,0.7c5-1.3,5.5-5.9,5.5-5.9c-7.3,4.3-10.1,1.9-13.5-1s-10.3,0.6-10.3,0.6
				s3.4-1.8,8.3,3.5L37.3,42c-0.8,1.1-0.6,2.8,0.6,3.6c0.4,0.3,1,0.5,1.5,0.5h4l-2.4,4.7c-0.5,1-1.4,1.6-2.5,1.6h-3.8
				c1,2.6,4,3.9,6.6,2.9c1.3-0.5,2.3-1.6,2.9-2.9l3.1-6.3h5.9c1.3,0,2.3-1,2.3-2.3c0,0,0,0,0,0h-7l2.1-4.1c-2.3,0-4.5,1.3-5.5,3.4
				l-0.4,0.8h-2.7c-0.5,0-0.9-0.4-0.9-0.9c0-0.2,0.1-0.4,0.2-0.5L46.1,35.3z"/>
			<path class="st1" d="M36.9,47.7h4.5L40,50.1c-0.5,0.7-1.2,1.1-2.1,1.1h-3.3L36.9,47.7z"/>
			<path class="st1" d="M53.2,50.8c0,1.5-1.2,2.8-2.8,2.8c-1.5,0-2.8-1.2-2.8-2.8c0-1.5,1.2-2.8,2.8-2.8l0,0
				C51.9,48.1,53.2,49.3,53.2,50.8"/>
			<path class="st1" d="M78.9,27.4c0,0-4.4-4.5-9.9-3.6s-9.6,7.4-5.6,13.9c0.5,0.7,1,1.5,1.5,2.2c-2.8,1.7-10.8,7.3-10.8,14.1
				c0,7.5,16.2,9.9,20.5,0c3.1-7,0.5-11.2-1.8-13.5l4.1-3.2c0,0,0.6-1.1-1.2-1.3c-1.4-0.1-4.8,1.3-6.1,1.9c-1.2-1.1-2.7-2.8-2.1-5.1
				c1-3.8,4.4-4.4,7-1.4c0,0,1.1,2,3.2,1.5c1.2-0.3,2.3-1.1,2.4-2.3C80.2,29.3,79.8,28.2,78.9,27.4 M70.4,50.3
				c-2.3,5.1-10.5,5-10.5,1.5c0-2,6.2-6.7,8.5-8.3C70.4,45.7,71.7,47.3,70.4,50.3"/>
			<path class="st1" d="M78.9,27.4c0,0-4.4-4.5-9.9-3.6s-9.6,7.4-5.6,13.9c0.5,0.7,1,1.5,1.5,2.2c-2.8,1.7-10.8,7.3-10.8,14.1
				c0,7.5,16.2,9.9,20.5,0c3.1-7,0.5-11.2-1.8-13.5l4.1-3.2c0,0,0.6-1.1-1.2-1.3c-1.4-0.1-4.8,1.3-6.1,1.9c-1.2-1.1-2.7-2.8-2.1-5.1
				c1-3.8,4.4-4.4,7-1.4c0,0,1.1,2,3.2,1.5c1.2-0.3,2.3-1.1,2.4-2.3C80.2,29.3,79.8,28.2,78.9,27.4z M70.4,50.3
				c-2.3,5.1-10.5,5-10.5,1.5c0-2,6.2-6.7,8.5-8.3C70.4,45.7,71.7,47.3,70.4,50.3z"/>
			<path class="st1" d="M24.8,48.1c-0.4-0.5-0.5-1.1-0.5-1.7c0-0.6,0.3-1.2,1.3-1.2h6.1c1.2,0,2.3-0.7,2.8-1.7l0.5-0.9h-3.1l6-9.8
				h-7.3l2.5-4.3h-1.3c-1.4,0-2.8,0.8-3.5,2l-1.4,2.3h-2c-1.1,0-2,0.9-2,2c0,0,0,0,0,0h2.8L21,42.6h-1.7c-1.6,0-2.9,1.3-2.9,2.9h2.8
				l-5.5,9.3h4.3l3.2-5.2l3,3.7l0.7,0.9c1.2,1.2,2.8,1.7,4.4,1.4c2-0.3,3.9-2.4,4.2-4.4c0.3-2.8-1.6-5.3-4.4-5.6
				c-0.8-0.1-1.7,0-2.5,0.3l3,3.5c0.7,0.6,0.7,1.7,0.1,2.4c-0.6,0.7-1.7,0.7-2.4,0.1L24.8,48.1z M25.1,42.6l4.4-7.8h2.9l-4.5,7.8
				H25.1z"/>
		</g>
	</g>
</g>
</svg>
