<svg xmlns="http://www.w3.org/2000/svg" width="560" height="560" viewBox="0 0 560 560">
    <g fill="none" fill-rule="evenodd">
        <path d="M0 0h560v560H0z"/>
        <path fill="#9B9B9B" d="M127.52 79.84c-13.44 14-30.24 26.88-50.4 39.2-20.16 11.2-39.2 19.04-57.12 23.52v64.96c36.96-10.64 67.2-26.88 91.28-48.72v320.88h65.52V79.84h-49.28zM395.2 72c46.48 0 82.88 19.04 109.2 58.24 24.64 36.96 36.96 86.8 36.96 149.52 0 62.72-12.32 112.56-36.96 149.52-26.32 38.64-62.72 58.24-109.2 58.24-47.04 0-83.44-19.6-109.2-58.24-24.64-36.96-36.96-86.8-36.96-149.52 0-62.72 12.32-112.56 36.96-149.52C311.76 91.04 348.16 72 395.2 72zm0 55.44c-31.92 0-54.32 17.36-67.2 53.2-8.96 24.08-13.44 57.12-13.44 99.12 0 41.44 4.48 74.48 13.44 99.12 12.88 35.28 35.28 53.2 67.2 53.2 31.36 0 53.76-17.92 67.2-53.2 8.96-24.64 13.44-57.68 13.44-99.12 0-42-4.48-75.04-13.44-99.12-13.44-35.84-35.84-53.2-67.2-53.2z" opacity=".2"/>
    </g>
</svg>
