<svg xmlns="http://www.w3.org/2000/svg" width="420" height="420" viewBox="0 0 420 420">
    <g fill="none" fill-rule="evenodd">
        <path d="M0 0h420v420H0z"/>
        <path fill="#0EB8A3" d="M214.4 54c58.8 0 91.98 27.3 99.54 81.9h-47.88c-5.88-27.72-23.52-41.58-52.08-41.58-20.16 0-36.12 9.66-47.88 29.4-11.76 18.48-17.22 41.58-17.22 69.3v3.78h2.1c8.4-12.6 18.9-21.42 31.5-27.3 11.76-5.88 25.2-8.4 40.32-8.4 29.4 0 52.92 9.24 70.56 28.14s26.46 43.26 26.46 72.66c0 30.24-10.5 55.02-30.66 74.34s-45.36 29.4-75.18 29.4c-36.96 0-65.1-13.44-84.42-39.9C110.24 299.7 101 264 101 218.22c0-49.14 10.08-88.62 30.66-118.86C151.82 69.12 179.54 54 214.4 54zm-2.1 147c-18.48 0-32.76 5.46-42.84 16.8-10.5 10.92-15.54 26.46-15.54 45.78 0 18.9 5.46 34.02 16.38 44.94 10.92 10.92 24.78 16.38 42 16.38 17.64 0 31.5-5.88 42.42-17.64 10.92-11.76 16.38-26.88 16.38-45.36s-5.46-33.18-15.54-44.1c-10.92-11.34-25.2-16.8-43.26-16.8z" opacity=".2"/>
    </g>
</svg>
