<?xml version="1.0" encoding="utf-8"?>
<!-- Generator: Adobe Illustrator 22.0.1, SVG Export Plug-In . SVG Version: 6.00 Build 0)  -->
<svg version="1.1" id="圖層_1" xmlns="http://www.w3.org/2000/svg" xmlns:xlink="http://www.w3.org/1999/xlink" x="0px" y="0px"
	 viewBox="0 0 86 86" style="enable-background:new 0 0 86 86;" xml:space="preserve">
<style type="text/css">
	.st0{fill:#FFFFFF;}
	.st1{fill:#C21B2B;}
</style>
<g>
	<path class="st0" d="M85.7,48.3c-2.9,23.6-24.4,40.3-48,37.4s-40.3-24.4-37.4-48s24.4-40.3,48-37.4S88.6,24.7,85.7,48.3"/>
	<g>
		<path class="st1" d="M44.8,47.2l7.8-11l-4.6,0.7c-1.1,0.2-2,0.8-2.6,1.6l-8.8,12.8L34.8,38l-4.6,0.7l0.1,0.5
			c0.6,0.3,1.2,0.7,1.8,1.2c1.5,1.3,2.4,3.1,2.9,5.5c0.4,1.8,0.3,3.4-0.1,4.8c-0.4,1.3-1,2.5-2,3.5c-0.1,0.1-0.2,0.2-0.3,0.3l1.6,11
			l4.6-0.7l-0.9-6c-0.1-1,0.1-2,0.7-2.8l1.3-1.8c0.4-0.6,1.2-0.7,1.8-0.3c0.1,0.1,0.2,0.1,0.2,0.2l0,0l4.9,6
			c1.8,2.3,4.7,3.4,7.6,2.9l1.4-0.2L45,50.7C44.1,49.7,44,48.3,44.8,47.2z"/>
		<path class="st1" d="M27,39.6c-1-0.1-3.2,0.2-6.6,0.9l-12,2.3L9,46.3l11.7-2.2c2.1-0.4,3.4-0.6,4.2-0.6c1,0,2.1,0.3,2.9,0.9
			c0.8,0.6,1.4,1.5,1.6,2.7c0.2,0.9,0.1,1.8-0.2,2.7c-0.4,0.8-1,1.5-1.7,2c-0.8,0.5-2.3,0.9-4.6,1.4l-3.7,0.7l-0.8-4.2
			c-0.2-0.9-1.1-1.6-2-1.4l-2.8,0.5l1.9,9.9l1.9,9.8l4.3-0.8L20,59.9c-0.3-1.4,0.7-2.8,2.1-3.1l1.7-0.3c2.5-0.5,4.4-1,5.6-1.5
			c0.9-0.4,1.7-1,2.4-1.7c0.1-0.1,0.3-0.3,0.4-0.5l-1.8-11.9C29.4,40.1,28.2,39.7,27,39.6z"/>
		<path class="st1" d="M33.6,46.1c-0.4-2.1-1.2-3.6-2.5-4.7c-0.2-0.2-0.4-0.4-0.7-0.5l1.8,11.9c0.6-0.7,1-1.6,1.3-2.5
			C33.9,49.1,33.9,47.7,33.6,46.1z"/>
		<path class="st1" d="M20.3,39.9l-9,1.8l-3.7,0.7l0.8,4.8l3.8-0.7l5.9-1.1l2.6-0.5c2-0.4,3.4-0.6,4.1-0.6c0.9,0,1.8,0.3,2.5,0.8
			c0.7,0.5,1.2,1.3,1.4,2.3c0.2,0.8,0.1,1.6-0.2,2.3c-0.3,0.7-0.8,1.3-1.5,1.7c-0.7,0.4-2.1,0.9-4.3,1.3l-3.1,0.6L19,49.6
			c-0.3-1.3-1.5-2.1-2.8-1.9l-3.5,0.7l2,10.6l2,10.4l5.6-1.1l-1.7-8.5c0,0,0,0,0,0c-0.2-1.1,0.5-2.1,1.6-2.3l1.7-0.3
			c2.5-0.5,4.4-1,5.7-1.5c1-0.4,1.9-1.1,2.6-1.9c0,0,0,0,0,0l-0.1-0.9c-0.1,0.2-0.2,0.3-0.4,0.5c-0.7,0.7-1.5,1.3-2.4,1.7
			c-1.2,0.5-3.1,1-5.6,1.5l-1.7,0.3c-1.4,0.3-2.4,1.7-2.1,3.1l1.5,7.8l-4.3,0.8l-1.9-9.8l-1.9-9.9l2.8-0.5c0.9-0.2,1.9,0.4,2,1.4
			l0.8,4.2l3.7-0.7c2.3-0.5,3.8-0.9,4.6-1.4c0.8-0.5,1.4-1.2,1.7-2c0.4-0.8,0.4-1.8,0.2-2.7c-0.2-1.2-0.8-2.1-1.6-2.7
			c-0.8-0.6-1.9-1-2.9-0.9c-0.7,0-2.1,0.2-4.2,0.6L9,46.3l-0.6-3.5l12-2.3c3.3-0.7,5.5-1,6.6-0.9c1.3,0.1,2.4,0.5,3.5,1.3L30.3,40
			c-1-0.6-2.1-1-3.3-1C25.9,38.9,23.7,39.2,20.3,39.9z"/>
		<path class="st1" d="M31.1,41.4c1.2,1.1,2.1,2.7,2.5,4.7c0.3,1.6,0.3,3-0.1,4.2c-0.3,0.9-0.7,1.7-1.3,2.5l0.1,0.9
			c0.8-0.9,1.5-2,1.8-3.2c0.4-1.3,0.4-2.8,0.1-4.5c-0.4-2.2-1.3-3.9-2.7-5.1c-0.4-0.3-0.8-0.6-1.2-0.9l0.1,0.9
			C30.7,41.1,30.9,41.2,31.1,41.4z"/>
		<polygon class="st1" points="67.5,50.1 68.4,54 76.1,52.2 75.2,48.3 		"/>
		<path class="st1" d="M71.6,32.9c-1.1-0.3-2.1-0.5-3.3-0.6c-8-0.5-15,5.6-15.5,13.6c-0.5,8,5.6,15,13.6,15.5
			c8,0.5,15-5.6,15.5-13.6C82.4,41,78.1,34.8,71.6,32.9z M63.3,54.8c0.4,1.4-0.1,2.3-1.6,2.7h0c-1.1,0.4-2.3-0.2-2.8-1.2l0,0
			c-0.1-0.1-0.1-0.2-0.2-0.3l0.5-0.1c0.3,0,0.7-0.1,1-0.1c0.7-0.1,1-0.5,0.8-1.1l-0.7-3.2c-0.1,0.1-0.3,0.1-0.4,0.2
			c-1.1,0.3-2.2-0.3-2.5-1.3c0.1,0,0.3-0.1,0.4-0.2c0.5-0.2,1.1-0.6,2-1l-1-4.5l-0.3,0.1c0,0,0,0,0,0c-1.1,0.2-2.2-0.4-2.4-1.5
			l0-0.2l2.3-0.5l-0.8-3.7l2.2-0.5l0.8,3.7l2.2-0.5l0.5,2.2l-2.2,0.5l0.9,4l1.9-1.1c0.2,0.9,0.4,1.6,0.5,2.3l-1.9,1.1L63.3,54.8z
			 M77.2,54.4l-9,1.8c-0.8,0.2-1.6-0.4-1.8-1.2l-1.2-5.2c-0.2-0.7,0.3-1.4,1-1.6l9.5-2.1c0,0,0,0,0,0c0.7-0.2,1.4,0.3,1.6,1l1.2,5.4
			l0,0c0,0,0,0,0,0C78.6,53.4,78,54.2,77.2,54.4z M79.2,42.3c-0.5,1.1-1.7,1.5-2.8,1.1c-0.7-0.3-1.3-0.6-1.6-0.7
			c0.2,1-0.4,2-1.4,2.2l-5.6,1.3c0,0,0,0,0,0c-0.9,0.2-1.8-0.4-2-1.3c-0.4,0.5-0.9,1.1-1.3,1.7c-0.1-0.1-0.3-0.4-0.6-0.8l0,0l0,0
			c-0.5-0.6-0.5-1.6,0-2.2c1.9-2.1,3.3-4.7,3.9-7.4l2.6-0.4l-0.3,1c2.2,2.1,4.5,3.8,9.4,5.2C79.3,42.1,79.2,42.2,79.2,42.3z"/>
		<path class="st1" d="M69.2,38.8c-0.7,2-1.7,3.9-3,5.5l8.2-1.9C72.4,41.6,70.7,40.3,69.2,38.8L69.2,38.8z"/>
		<path class="st1" d="M71.9,32.1c-8.2-2.5-16.8,2.2-19.3,10.4c-2.5,8.2,2.2,16.8,10.4,19.3c1.1,0.3,2.3,0.6,3.5,0.6v0
			c7.2,0.5,13.7-4.1,15.8-11C84.7,43.2,80.1,34.6,71.9,32.1z M67.4,61.8c-8.3,0-15.1-6.7-15.1-15.1s6.7-15.1,15.1-15.1
			c8.3,0,15.1,6.7,15.1,15.1c0,0,0,0,0,0C82.5,55.1,75.8,61.8,67.4,61.8z"/>
		<path class="st1" d="M67.4,31.7c-8.3,0-15.1,6.7-15.1,15.1s6.7,15.1,15.1,15.1s15.1-6.7,15.1-15.1c0,0,0,0,0,0
			C82.5,38.5,75.8,31.7,67.4,31.7z M81.9,47.8c-0.5,8-7.4,14.1-15.5,13.6c-8-0.5-14.1-7.4-13.6-15.5c0.5-8,7.4-14.1,15.5-13.6
			c1.1,0.1,2.2,0.3,3.3,0.6C78.1,34.8,82.4,41,81.9,47.8z"/>
		<path class="st1" d="M49.8,26c0.1,0.4-0.1,0.7-0.2,0.9c-0.2,0.2-0.4,0.4-0.8,0.4l-0.1,0c0,0-0.1,0-0.2,0.1c-0.4,0.2-0.6,0.6-0.6,1
			l1.7-0.3c1.1-0.2,1.5-0.7,1.3-1.8l-0.6-3.7l-1.1,0.2L49.8,26z"/>
		<path class="st1" d="M53.7,23.2c1,0.6,1.9,1.3,2.8,2l0.1,0c0.5,0.4,1.3,0.3,1.7,0c-0.9-0.7-1.8-1.4-2.8-2.1
			C55,22.8,54.2,22.9,53.7,23.2z"/>
		<path class="st1" d="M44.7,25c-0.7,1-1.4,1.9-2.3,2.8c0.3,0.1,0.6,0.2,0.9,0.2c0.4,0,0.8-0.3,1.1-0.6c0.7-0.9,1.4-1.9,1.9-2.9
			C45.7,24.3,45.1,24.5,44.7,25z"/>
		<path class="st1" d="M52.7,23l-0.3,0.4l0.4,0.2c1.1,0.7,2.2,1.4,3.2,2.2c0,0,0.1,0,0.1,0.1c0.4,0.3,0.9,0.4,1.3,0.4
			c0.7,0,1.4-0.3,1.9-1l0.1-0.1V25l-0.2-0.1c-1-0.9-2.1-1.7-3.3-2.4C54.9,21.7,53.4,22,52.7,23z M59,25.2c-0.6,0.8-1.8,1-2.6,0.4
			c0,0-0.1,0-0.1-0.1c-1-0.8-2.1-1.6-3.2-2.3c0.6-0.9,1.8-1.1,2.7-0.5C56.9,23.5,57.9,24.3,59,25.2L59,25.2z"/>
		<path class="st1" d="M47.1,23.9c-1-0.7-2.4-0.4-3.1,0.6c-0.7,1.1-1.6,2.1-2.6,3l-0.3,0.3l0.3,0.3c0.1,0,0.1,0.1,0.2,0.1
			c0.4,0.4,1,0.5,1.5,0.5c0.1,0,0.2,0,0.3,0c0.7-0.1,1.2-0.4,1.7-0.9c0.8-1.1,1.6-2.2,2.2-3.4l0.2-0.4L47.1,23.9z M44.7,27.6
			c-0.7,0.9-2,1-2.9,0.3c0,0-0.1-0.1-0.1-0.1c1-0.9,1.9-1.9,2.6-3.1c0.6-0.8,1.7-1.1,2.5-0.5l0,0C46.3,25.5,45.5,26.6,44.7,27.6z"/>
		<path class="st1" d="M51.4,26.2c0.2,1.3-0.4,2.1-1.7,2.3l-2.1,0.3l0-0.1c-0.3-0.7,0-1.5,0.8-1.8c0.1,0,0.2-0.1,0.3-0.1h0
			c0.5-0.1,0.7-0.3,0.6-0.8l-0.5-3.3l-0.4,0.1l0.5,3.3c0,0.1,0,0.2,0,0.2c0,0-0.1,0.1-0.2,0.1l-0.1,0c-0.1,0-0.3,0.1-0.4,0.1
			c-0.9,0.4-1.4,1.5-1,2.4l0.2,0.4l2.4-0.4c1.6-0.3,2.3-1.2,2.1-2.8l-0.6-3.7l-0.4,0.1L51.4,26.2z"/>
		<path class="st1" d="M44.3,24.8c-0.8,1.1-1.6,2.2-2.6,3.1c0,0,0.1,0.1,0.1,0.1c0.9,0.7,2.2,0.6,2.9-0.3c0.8-1,1.6-2.2,2.2-3.4l0,0
			C46,23.7,44.9,23.9,44.3,24.8z M44.4,27.4c-0.3,0.3-0.6,0.5-1.1,0.6c-0.3,0-0.6,0-0.9-0.2c0.9-0.8,1.6-1.8,2.3-2.8
			c0.4-0.5,1-0.7,1.6-0.6C45.7,25.5,45.1,26.5,44.4,27.4z"/>
		<path class="st1" d="M51,26.3c0.2,1-0.2,1.6-1.3,1.8L48,28.3c0-0.4,0.2-0.8,0.6-1c0.1,0,0.2-0.1,0.2-0.1l0.1,0
			c0.3-0.1,0.6-0.2,0.8-0.4c0.1-0.2,0.3-0.4,0.2-0.9l-0.5-3.3l-0.4,0.1l0.5,3.3c0.1,0.4-0.1,0.7-0.6,0.8h0c-0.1,0-0.2,0-0.3,0.1
			c-0.7,0.3-1.1,1.1-0.8,1.8l0,0.1l2.1-0.3c1.3-0.2,1.9-1,1.7-2.3l-0.6-3.7l-0.4,0.1L51,26.3z"/>
		<path class="st1" d="M53,23.3c1.1,0.7,2.2,1.4,3.2,2.3c0,0,0.1,0,0.1,0.1c0.8,0.6,2,0.4,2.6-0.4h0c-1-0.9-2.1-1.6-3.2-2.4
			C54.9,22.2,53.7,22.4,53,23.3z M56.6,25.3L56.6,25.3c-1-0.8-1.9-1.4-2.9-2.1c0.5-0.4,1.2-0.4,1.8,0c1,0.6,1.9,1.3,2.8,2.1
			C57.8,25.6,57.1,25.7,56.6,25.3z"/>
		<path class="st1" d="M22.2,20.6l3.5-0.6l1.5,9l-0.3,0.1c-1.6,0.7-3.3,1.2-5,1.7c0.5,0.6,1.3,0.9,2.1,0.6c2.2-0.8,4.2-1.6,6-2.4
			l-0.2-1.2c-0.3,0.1-0.5,0.2-0.8,0.4l-0.5,0.2L26,13l-1.3,0.2l0.9,5.6l-5.1,0.8C20.7,20.3,21.5,20.7,22.2,20.6z"/>
		<path class="st1" d="M19.5,19.4c0.2,1.4,1.5,2.3,2.9,2.1l2.6-0.4l1.2,7.5c-1.7,0.7-3.4,1.2-5.1,1.7l-0.5,0.1l0.2,0.5
			c0.4,1,1.5,1.7,2.5,1.7c0.3,0,0.6-0.1,0.9-0.2c2.3-0.8,4.4-1.7,6.4-2.6l0.3-0.1l-0.5-3L30,26.9c-0.3,0.1-0.5,0.2-0.8,0.4L26.7,12
			l-3.1,0.5l0.9,5.6l-5.2,0.8L19.5,19.4z M25,18.5l-0.9-5.6l2.2-0.4l2.5,15.4c0.5-0.2,0.9-0.4,1.3-0.6l0.3,2.1
			c-2,0.9-4.1,1.8-6.4,2.6c-1.2,0.4-2.4-0.1-2.9-1.3c1.9-0.5,3.7-1.2,5.5-1.9l-1.3-8.3l-3.1,0.5c0,0,0,0,0,0
			c-1.1,0.2-2.2-0.6-2.4-1.7L25,18.5z"/>
		<path class="st1" d="M22.3,21.1C22.3,21.1,22.3,21.1,22.3,21.1l3.1-0.5l1.3,8.3c-1.8,0.7-3.6,1.3-5.5,1.9c0.5,1.1,1.8,1.7,2.9,1.3
			c2.2-0.8,4.4-1.6,6.4-2.6l-0.3-2.1c-0.4,0.2-0.9,0.4-1.3,0.6l-2.5-15.4l-2.2,0.4l0.9,5.6l-5.2,0.8C20.1,20.5,21.2,21.2,22.3,21.1z
			 M25.5,18.8l-0.9-5.6L26,13l2.5,15.5l0.5-0.2c0.3-0.1,0.5-0.2,0.8-0.4l0.2,1.2c-1.9,0.9-3.9,1.6-6,2.4c-0.8,0.3-1.6,0-2.1-0.6
			c1.7-0.5,3.4-1.1,5-1.7l0.3-0.1l-1.5-9l-3.5,0.6c-0.8,0.1-1.5-0.3-1.8-1L25.5,18.8z"/>
		<polygon class="st1" points="31.3,12.2 29.9,12.4 30.7,17.6 32.1,17.1 		"/>
		<path class="st1" d="M31.2,20.5l1.4,8.5c0.1,0.7,0.3,1.1,0.7,1.4c0.4,0.3,0.9,0.3,1.6,0.2l2.7-0.4c1-0.2,1.6-0.5,1.9-0.9
			c0.1-0.2,0.3-0.9,0.2-3.2c0-0.3-0.2-0.5-0.5-0.5l-0.8-0.1c0.2,1.9,0.1,2.5,0,2.8c-0.2,0.3-0.5,0.7-1.3,0.8l-1.8,0.3
			c-0.7,0.1-1.2-0.2-1.3-0.8L32.5,20L31.2,20.5C31.2,20.5,31.2,20.5,31.2,20.5z"/>
		<polygon class="st1" points="29.4,12 31.6,11.7 32.5,16.9 32.9,16.7 32,11.2 28.9,11.7 29.9,17.9 30.3,17.8 		"/>
		<path class="st1" d="M34.3,28.4c0.1,0.4,0.3,0.5,0.8,0.5l1.8-0.3c0.5-0.1,0.9-0.3,1-0.6c0.2-0.3,0.1-1.4-0.1-3.1l1.4,0.2
			c0.5,0.1,0.8,0.5,0.8,0.9c0.1,1.8,0.1,3-0.2,3.5c-0.3,0.5-1.1,0.9-2.2,1.1L35,31c-1.6,0.3-2.6-0.4-2.8-1.9l-1.4-8.4
			c-0.1,0-0.3,0-0.4,0l1.4,8.4c0.1,0.9,0.5,1.5,1.1,1.9c0.4,0.3,0.9,0.4,1.5,0.4c0.2,0,0.5,0,0.7-0.1l2.7-0.4
			c1.2-0.2,2.1-0.6,2.5-1.3c0.2-0.4,0.5-1.1,0.3-3.7c0-0.7-0.5-1.2-1.2-1.3l-1.9-0.3l0.1,0.6c0.3,2.3,0.2,2.8,0.1,2.9
			c-0.1,0.2-0.4,0.3-0.7,0.4l-1.8,0.3c-0.3,0-0.3,0-0.3-0.1l-1.4-8.7L33,19.8L34.3,28.4z"/>
		<path class="st1" d="M33.9,28.5c0.1,0.6,0.6,0.9,1.3,0.8L37,29c0.8-0.1,1.2-0.5,1.3-0.8c0.2-0.3,0.2-0.9,0-2.8l0.8,0.1
			c0.3,0,0.4,0.3,0.5,0.5c0.2,2.3,0,3-0.2,3.2c-0.3,0.4-0.9,0.7-1.9,0.9l-2.7,0.4c-0.7,0.1-1.2,0-1.6-0.2c-0.4-0.3-0.6-0.7-0.7-1.4
			l-1.4-8.5c-0.1,0.1-0.3,0.1-0.4,0.1l1.4,8.4c0.3,1.6,1.2,2.2,2.8,1.9l2.7-0.4c1.1-0.2,1.9-0.6,2.2-1.1c0.3-0.5,0.4-1.7,0.2-3.5
			c0-0.5-0.4-0.8-0.8-0.9l-1.4-0.2c0.2,1.7,0.2,2.8,0.1,3.1c-0.2,0.3-0.5,0.5-1,0.6l-1.8,0.3c-0.5,0.1-0.7-0.1-0.8-0.5L33,19.8
			L32.5,20L33.9,28.5z"/>
		<polygon class="st1" points="29.9,12.4 31.3,12.2 32.1,17.1 32.5,16.9 31.6,11.7 29.4,12 30.3,17.8 30.7,17.6 		"/>
		<path class="st1" d="M51,21.1l0.1,0.5l1.5-0.2c0.5-0.1,0.9-0.6,0.8-1.1l-0.9-5.8c0-0.3-0.2-0.5-0.4-0.6c-0.2-0.1-0.5-0.2-0.7-0.2
			l-5.8,0.9c-0.2,0-0.5,0.2-0.6,0.4c-0.1,0.2-0.2,0.5-0.2,0.7l0.9,5.8c0,0.2,0.2,0.5,0.4,0.6c0.2,0.1,0.5,0.2,0.7,0.2l1.5-0.2
			l-0.1-0.4L51,21.1z M47.6,21.2c-0.6,0-1.2-0.5-1.3-1.1l-0.6-3.5c-0.1-0.7,0.4-1.4,1.1-1.5l3.5-0.6c0.7-0.1,1.4,0.4,1.5,1.1
			l0.6,3.5c0.1,0.7-0.4,1.4-1.1,1.5l-3.5,0.6C47.8,21.2,47.7,21.2,47.6,21.2z"/>
		<polygon class="st1" points="50.7,21.6 50.7,21.6 51.1,21.5 51,21.1 48.2,21.5 48.3,22 48.7,21.9 48.7,21.9 		"/>
		<rect x="48.7" y="21.7" transform="matrix(0.9867 -0.1625 0.1625 0.9867 -2.8735 8.3607)" class="st1" width="2" height="0"/>
		<path class="st1" d="M52,19.2l-0.6-3.5c-0.1-0.5-0.5-0.8-1-0.7l-3.5,0.6c-0.5,0.1-0.8,0.5-0.7,1l0.6,3.5c0.1,0.5,0.5,0.8,1,0.7
			l3.5-0.6C51.7,20.2,52.1,19.7,52,19.2z M51.2,19.8l-3.5,0.6c-0.2,0-0.5-0.1-0.5-0.4l-0.6-3.5c0-0.2,0.1-0.5,0.4-0.5l3.5-0.6
			c0,0,0,0,0.1,0c0.2,0,0.4,0.2,0.4,0.4l0.6,3.5C51.6,19.5,51.4,19.8,51.2,19.8z"/>
		<path class="st1" d="M54.3,20.1l-0.9-5.8c-0.1-0.5-0.3-0.9-0.7-1.2c-0.4-0.3-0.9-0.4-1.3-0.3l-5.8,0.9c-0.5,0.1-0.9,0.3-1.2,0.7
			c-0.3,0.4-0.4,0.9-0.3,1.4l0.9,5.8c0.1,0.5,0.3,0.9,0.7,1.2c0.3,0.2,0.7,0.3,1.1,0.3c0.1,0,0.2,0,0.3,0l1.5-0.2l-0.1-0.4l-1.5,0.2
			c-0.8,0.1-1.5-0.4-1.6-1.1l-0.9-5.8c0,0,0,0,0,0c-0.1-0.8,0.4-1.5,1.1-1.6l5.8-0.9c0,0,0,0,0,0c0.8-0.1,1.5,0.4,1.6,1.1l0.9,5.8
			c0.1,0.7-0.4,1.5-1.1,1.6L51.2,22l0.1,0.4l1.5-0.2C53.8,22,54.4,21,54.3,20.1z"/>
		<rect x="49.2" y="22.2" transform="matrix(0.9872 -0.1595 0.1595 0.9872 -2.9357 8.2274)" class="st1" width="1.1" height="0.4"/>
		<rect x="50.8" y="22" transform="matrix(0.9872 -0.1595 0.1595 0.9872 -2.8891 8.4173)" class="st1" width="0.4" height="0.4"/>
		<polygon class="st1" points="48.8,22.3 48.3,22.4 48.4,22.8 48.8,22.8 		"/>
		<polygon class="st1" points="49.2,22.3 48.8,22.3 48.8,22.8 49.3,22.7 		"/>
		<rect x="50.3" y="22.1" transform="matrix(0.9872 -0.1598 0.1598 0.9872 -2.9097 8.3651)" class="st1" width="0.4" height="0.4"/>
		<path class="st1" d="M52.4,19.2l-0.6-3.5c-0.1-0.7-0.8-1.2-1.5-1.1l-3.5,0.6c-0.7,0.1-1.2,0.8-1.1,1.5l0.6,3.5
			c0.1,0.6,0.7,1.1,1.3,1.1c0.1,0,0.1,0,0.2,0l3.5-0.6C52.1,20.5,52.5,19.9,52.4,19.2z M47.8,20.8c-0.5,0.1-0.9-0.3-1-0.7l-0.6-3.5
			c-0.1-0.5,0.3-0.9,0.7-1l3.5-0.6c0.5-0.1,0.9,0.3,1,0.7l0.6,3.5c0.1,0.5-0.3,0.9-0.7,1L47.8,20.8z"/>
		<path class="st1" d="M46.8,22.2c-0.2,0-0.5,0-0.7-0.2c-0.2-0.1-0.3-0.4-0.4-0.6l-0.9-5.8c0-0.2,0-0.5,0.2-0.7
			c0.1-0.2,0.4-0.3,0.6-0.4l5.8-0.9c0.2,0,0.5,0,0.7,0.2c0.2,0.1,0.3,0.4,0.4,0.6l0.9,5.8c0.1,0.5-0.3,1-0.8,1.1l-1.5,0.2l0.1,0.4
			l1.5-0.2c0.7-0.1,1.3-0.8,1.1-1.6l-0.9-5.8c-0.1-0.8-0.8-1.3-1.6-1.1c0,0,0,0,0,0l-5.8,0.9c-0.8,0.1-1.3,0.8-1.1,1.6c0,0,0,0,0,0
			l0.9,5.8c0.1,0.8,0.8,1.3,1.6,1.1l1.5-0.2L48.3,22L46.8,22.2z"/>
		<rect x="49.2" y="22.2" transform="matrix(0.9867 -0.1626 0.1626 0.9867 -2.9432 8.3819)" class="st1" width="1.1" height="0"/>
		<polygon class="st1" points="48.7,21.9 48.3,22 48.3,22.4 48.8,22.3 		"/>
		<rect x="50.7" y="21.6" transform="matrix(0.9872 -0.1595 0.1595 0.9872 -2.8221 8.4029)" class="st1" width="0.4" height="0.4"/>
		<polygon class="st1" points="48.7,21.9 48.8,22.3 49.2,22.3 49.2,22.3 50.3,22.1 50.3,22.1 50.7,22 50.7,21.6 		"/>
		<path class="st1" d="M29.1,19.2c0.3,0.4,0.7,0.6,1.2,0.6l-0.2-1L29.1,19.2z"/>
		<polygon class="st1" points="38.8,16.5 38.4,15.4 33,17.6 33.2,18.8 		"/>
		<polygon class="st1" points="32.4,19.1 32.2,17.9 30.9,18.5 31.1,19.6 		"/>
		<path class="st1" d="M30.1,18.8l0.2,1c0.1,0,0.3,0,0.4,0l-0.2-1.1L30.1,18.8z"/>
		<polygon class="st1" points="33.2,18.8 33,17.6 32.6,17.8 32.8,18.9 		"/>
		<polygon class="st1" points="32.8,18.9 32.6,17.8 32.2,17.9 32.4,19.1 		"/>
		<path class="st1" d="M31.1,19.6l-0.2-1.2l-0.4,0.2l0.2,1.1c0.1,0,0.2,0,0.2-0.1L31.1,19.6z"/>
		<polygon class="st1" points="38.6,14.8 39.3,16.7 33.3,19.2 33.4,19.6 39.9,17 38.8,14.3 32.9,16.7 33,17.2 		"/>
		<path class="st1" d="M28,19.2c0.4,0.9,1.3,1.5,2.3,1.5c0,0,0,0,0.1,0l-0.1-0.4c-0.8,0-1.5-0.5-1.9-1.2l1.6-0.6l-0.1-0.4l-2.1,0.8
			L28,19.2z"/>
		<polygon class="st1" points="31.2,20.5 31.2,20.5 32.5,20 32.5,19.5 31.1,20.1 		"/>
		<polygon class="st1" points="32.1,17.1 30.7,17.6 30.8,18 32.1,17.5 		"/>
		<polygon class="st1" points="32.5,17.3 33,17.2 32.9,16.7 32.5,16.9 		"/>
		<polygon class="st1" points="30.4,18.2 30.3,17.8 29.9,17.9 30,18.4 		"/>
		<polygon class="st1" points="32.9,19.4 32.9,19.5 33,19.8 33.4,19.6 33.3,19.2 		"/>
		<path class="st1" d="M30.7,20.2c-0.1,0-0.3,0.1-0.4,0.1l0.1,0.4c0.1,0,0.3,0,0.4,0L30.7,20.2z"/>
		<polygon class="st1" points="32.1,17.5 32.5,17.3 32.5,16.9 32.1,17.1 		"/>
		<polygon class="st1" points="32.5,20 33,19.8 32.9,19.5 32.9,19.4 32.5,19.5 		"/>
		<path class="st1" d="M31.1,20.1L31.1,20.1c-0.2,0.1-0.3,0.1-0.4,0.1l0.1,0.4c0.1,0,0.3-0.1,0.4-0.1L31.1,20.1z"/>
		<polygon class="st1" points="30.7,17.6 30.3,17.8 30.4,18.2 30.8,18 		"/>
		<polygon class="st1" points="38.4,15.4 38.8,16.5 33.2,18.8 33.3,19.2 39.3,16.7 38.6,14.8 33,17.2 33,17.6 		"/>
		<path class="st1" d="M29.1,19.2l1-0.4L30,18.4L28.4,19c0.3,0.8,1.1,1.2,1.9,1.2l-0.1-0.4C29.8,19.8,29.3,19.6,29.1,19.2z"/>
		<polygon class="st1" points="31.1,20.1 32.5,19.5 32.4,19.1 31.1,19.6 		"/>
		<polygon class="st1" points="32.1,17.5 30.8,18 30.9,18.5 32.2,17.9 		"/>
		<polygon class="st1" points="30.5,18.7 30.4,18.2 30,18.4 30.1,18.8 		"/>
		<path class="st1" d="M30.7,19.8c-0.1,0-0.3,0-0.4,0l0.1,0.4c0.1,0,0.3,0,0.4-0.1L30.7,19.8z"/>
		<polygon class="st1" points="32.6,17.8 33,17.6 33,17.2 32.5,17.3 32.6,17.4 		"/>
		<polygon class="st1" points="32.8,18.9 32.9,19.4 33.3,19.2 33.2,18.8 		"/>
		<polygon class="st1" points="32.2,17.9 32.6,17.8 32.6,17.4 32.5,17.3 32.1,17.5 		"/>
		<polygon class="st1" points="32.4,19.1 32.5,19.5 32.9,19.4 32.8,18.9 		"/>
		<polygon class="st1" points="30.9,18.5 30.8,18 30.4,18.2 30.5,18.7 		"/>
		<path class="st1" d="M31.1,20.1l-0.1-0.4l-0.2,0.1c-0.1,0-0.2,0.1-0.2,0.1l0.1,0.4C30.8,20.2,30.9,20.2,31.1,20.1L31.1,20.1z"/>
		<path class="st1" d="M40.7,13.1l15.7-2.5c-0.3-0.5-0.9-0.9-1.5-0.8l-6.1,1l-0.1-0.3c-0.4-0.7-1.1-1.1-1.9-1c0.2,0.3,0.4,0.6,0.6,1
			l0.3,0.5l-8.4,1.4C39.5,12.8,40.1,13.2,40.7,13.1z"/>
		<path class="st1" d="M38.2,12c0.2,1.1,1.1,1.9,2.3,1.9c0.1,0,0.2,0,0.3,0l16.6-2.7l-0.1-0.4c-0.2-1.2-1.4-2.1-2.6-1.9l-5.5,0.9
			c-0.7-1.1-2-1.5-3.2-1.1l-0.8,0.2l0.4,0.5c0.2,0.3,0.4,0.6,0.6,0.9l-8.1,1.3L38.2,12z M47,10.6c-0.3-0.5-0.6-1-1-1.4l0.2-0.1
			c1.1-0.4,2.3,0.1,2.9,1.1l0,0l5.8-0.9l0,0c0,0,0,0,0,0c1-0.2,2,0.5,2.1,1.5l-16.2,2.6c0,0,0,0,0,0c-1,0.1-1.9-0.6-2.1-1.6L47,10.6
			z"/>
		<path class="st1" d="M40.8,13.5C40.8,13.5,40.8,13.5,40.8,13.5l16.2-2.6c-0.2-1-1.1-1.7-2.1-1.5c0,0,0,0,0,0l0,0L49,10.3l0,0
			c-0.5-1-1.8-1.5-2.9-1.1L46,9.2c0.4,0.5,0.7,0.9,1,1.4L38.7,12C38.8,13,39.7,13.7,40.8,13.5z M47.7,10.9l-0.3-0.5
			c-0.2-0.3-0.4-0.6-0.6-1c0.8-0.1,1.5,0.3,1.9,1l0.1,0.3l6.1-1c0.6-0.1,1.2,0.2,1.5,0.8l-15.7,2.5c-0.6,0.1-1.2-0.2-1.5-0.8
			L47.7,10.9z"/>
	</g>
</g>
</svg>
