<?xml version="1.0" encoding="utf-8"?>
<!-- Generator: Adobe Illustrator 22.0.1, SVG Export Plug-In . SVG Version: 6.00 Build 0)  -->
<svg version="1.1" id="圖層_1" xmlns="http://www.w3.org/2000/svg" xmlns:xlink="http://www.w3.org/1999/xlink" x="0px" y="0px"
	 viewBox="0 0 86 86" style="enable-background:new 0 0 86 86;" xml:space="preserve">
<style type="text/css">
	.st0{fill:#0392F6;}
	.st1{fill:#FFFFFF;}
	.st2{fill:#F8DC19;}
	.st3{fill:#FFA000;}
	.st4{fill:#FFA100;}
	.st5{fill:#FFA201;}
	.st6{fill:#FFA301;}
	.st7{fill:#FFA402;}
	.st8{fill:#FEA502;}
	.st9{fill:#FEA602;}
	.st10{fill:#FEA703;}
	.st11{fill:#FEA803;}
	.st12{fill:#FEA904;}
	.st13{fill:#FEAA04;}
	.st14{fill:#FEAB05;}
	.st15{fill:#FEAC05;}
	.st16{fill:#FEAD05;}
	.st17{fill:#FDAE06;}
	.st18{fill:#FDAF06;}
	.st19{fill:#FDB007;}
	.st20{fill:#FDB107;}
	.st21{fill:#FDB207;}
	.st22{fill:#FDB308;}
	.st23{fill:#FDB408;}
	.st24{fill:#FDB509;}
	.st25{fill:#FCB609;}
	.st26{fill:#FCB709;}
	.st27{fill:#FCB80A;}
	.st28{fill:#FCB90A;}
	.st29{fill:#FCBA0B;}
	.st30{fill:#FCBB0B;}
	.st31{fill:#FCBC0B;}
	.st32{fill:#FCBD0C;}
	.st33{fill:#FCBE0C;}
	.st34{fill:#FBBE0D;}
	.st35{fill:#FBBF0D;}
	.st36{fill:#FBC00E;}
	.st37{fill:#FBC10E;}
	.st38{fill:#FBC20E;}
	.st39{fill:#FBC30F;}
	.st40{fill:#FBC40F;}
	.st41{fill:#FBC510;}
	.st42{fill:#FBC610;}
	.st43{fill:#FAC710;}
	.st44{fill:#FAC811;}
	.st45{fill:#FAC911;}
	.st46{fill:#FACA12;}
	.st47{fill:#FACB12;}
	.st48{fill:#FACC12;}
	.st49{fill:#FACD13;}
	.st50{fill:#FACE13;}
	.st51{fill:#F9CF14;}
	.st52{fill:#F9D014;}
	.st53{fill:#F9D114;}
	.st54{fill:#F9D215;}
	.st55{fill:#F9D315;}
	.st56{fill:#F9D416;}
	.st57{fill:#F9D516;}
	.st58{fill:#F9D617;}
	.st59{fill:#F9D717;}
	.st60{fill:#F8D817;}
	.st61{fill:#F8D918;}
	.st62{fill:#F8DA18;}
	.st63{fill:#F8DB19;}
</style>
<g id="圖層_2_1_">
	<g id="圖層_1-2">
		<g id="圖稿_21">
			<path class="st0" d="M86,42.8c0,23.7-19.3,43-43,43S0,66.5,0,42.8s19.3-43,43-43S86,19,86,42.8"/>
			<path class="st1" d="M31.3,42.5c4.4-0.9,7.7-4.7,7.7-9.2c0-5.2-4.4-9.5-9.9-9.5c-13.4-1-17.6,10.5-17.6,10.5l7.8,0.1h0.3
				c0.3-2.6,2.6-4.6,5.4-4.6c3,0,5.4,2.3,5.4,5.2s-2.4,5.2-5.4,5.2h-4.9v5.3h3.7c3.3,0.4,5.9,2.6,5.9,5.3c0,3-3.1,5.3-7,5.3
				c-3.7,0-6.7-2.2-7-5h-8c0,0,0.2,8.3,9.2,11.2c5.4,1.7,10.3,0.5,13.6-0.9l0.2-0.1c3.9-1.6,6.6-5.3,6.6-9.6
				C37.3,47.7,34.9,44.2,31.3,42.5"/>
			<path class="st1" d="M39.9,24.5l-3.3,30.8h8.5l1-14.8c0.6-5,4.8-8.7,9.8-8.6l2.9,0c1.8,0,3.5,0.5,5,1.5c1.8,1.2,3.8,3.4,3.6,7.2
				c-0.3,6.7-5.3,10.5-17.7,9.2V65c0,0,22-1.2,25.1-18.5S64.6,25.3,61.3,25.2C55,25,39.9,24.5,39.9,24.5"/>
			<path class="st2" d="M70.1,26.8c0,2-1.6,3.6-3.6,3.6c-2,0-3.6-1.6-3.6-3.6c0-2,1.6-3.6,3.6-3.6C68.5,23.3,70.1,24.8,70.1,26.8
				L70.1,26.8"/>
			<path class="st2" d="M69.3,15.5c0,1.1-0.9,1.9-1.9,1.9c-1.1,0-1.9-0.9-1.9-1.9c0-1.1,0.9-1.9,1.9-1.9
				C68.5,13.5,69.3,14.4,69.3,15.5C69.3,15.5,69.3,15.5,69.3,15.5"/>
			<path class="st3" d="M67.8,40.6c0,6-4.8,10.8-10.8,10.8c-6,0-10.8-4.8-10.8-10.8S51,29.8,57,29.8c0,0,0,0,0,0
				C63,29.8,67.8,34.6,67.8,40.6"/>
			<path class="st4" d="M67.8,40.6c0,5.9-4.8,10.8-10.8,10.8c-5.9,0-10.8-4.8-10.8-10.8c0-5.9,4.8-10.8,10.8-10.8c0,0,0,0,0,0
				C62.9,29.9,67.8,34.7,67.8,40.6"/>
			<path class="st5" d="M67.7,40.6c0,5.9-4.8,10.7-10.7,10.7s-10.7-4.8-10.7-10.7S51.1,29.9,57,29.9S67.7,34.7,67.7,40.6"/>
			<path class="st6" d="M67.6,40.6c0,5.9-4.8,10.6-10.6,10.6c-5.9,0-10.6-4.8-10.6-10.6S51.1,30,57,30c0,0,0,0,0,0
				C62.9,30,67.6,34.7,67.6,40.6"/>
			<path class="st7" d="M67.6,40.6c0,5.8-4.7,10.6-10.6,10.6c-5.8,0-10.6-4.7-10.6-10.6C46.4,34.8,51.1,30,57,30c0,0,0,0,0,0
				C62.8,30,67.6,34.8,67.6,40.6"/>
			<path class="st8" d="M67.5,40.6c0,5.8-4.7,10.5-10.5,10.5c-5.8,0-10.5-4.7-10.5-10.5S51.2,30.1,57,30.1c0,0,0,0,0,0
				C62.8,30.1,67.5,34.8,67.5,40.6L67.5,40.6"/>
			<path class="st9" d="M67.5,40.6c0,5.8-4.7,10.5-10.5,10.5c-5.8,0-10.5-4.7-10.5-10.5c0-5.8,4.7-10.5,10.5-10.5c0,0,0,0,0,0
				C62.8,30.2,67.5,34.8,67.5,40.6"/>
			<path class="st10" d="M67.4,40.6C67.4,46.4,62.7,51,57,51s-10.4-4.7-10.4-10.4S51.2,30.2,57,30.2c0,0,0,0,0,0
				C62.7,30.2,67.4,34.9,67.4,40.6"/>
			<path class="st11" d="M67.3,40.6C67.3,46.3,62.7,51,57,51s-10.4-4.6-10.4-10.4S51.3,30.3,57,30.3c0,0,0,0,0,0
				C62.7,30.3,67.4,34.9,67.3,40.6"/>
			<path class="st12" d="M67.3,40.6c0,5.7-4.6,10.3-10.3,10.3s-10.3-4.6-10.3-10.3S51.3,30.3,57,30.3c0,0,0,0,0,0
				C62.7,30.3,67.3,34.9,67.3,40.6"/>
			<path class="st13" d="M67.2,40.6c0,5.7-4.6,10.2-10.2,10.2s-10.2-4.6-10.2-10.2S51.3,30.4,57,30.4c0,0,0,0,0,0
				C62.7,30.4,67.2,35,67.2,40.6"/>
			<path class="st14" d="M67.2,40.6c0,5.6-4.6,10.2-10.2,10.2c-5.6,0-10.2-4.6-10.2-10.2c0-5.6,4.6-10.2,10.2-10.2l0,0
				C62.6,30.4,67.2,35,67.2,40.6"/>
			<path class="st15" d="M67.1,40.6c0,5.6-4.5,10.1-10.1,10.1c-5.6,0-10.1-4.5-10.1-10.1S51.4,30.5,57,30.5c0,0,0,0,0,0
				C62.6,30.5,67.1,35,67.1,40.6"/>
			<path class="st16" d="M67.1,40.6c0,5.6-4.5,10.1-10.1,10.1s-10.1-4.5-10.1-10.1c0-5.6,4.5-10.1,10.1-10.1c0,0,0,0,0,0
				C62.6,30.6,67.1,35.1,67.1,40.6"/>
			<path class="st17" d="M67,40.6c0,5.5-4.5,10-10,10c-5.5,0-10-4.5-10-10s4.5-10,10-10c0,0,0,0,0,0C62.5,30.6,67,35.1,67,40.6
				C67,40.6,67,40.6,67,40.6"/>
			<path class="st18" d="M66.9,40.6c0,5.5-4.5,9.9-9.9,9.9S47,46.1,47,40.6s4.5-9.9,9.9-9.9S66.9,35.1,66.9,40.6L66.9,40.6"/>
			<path class="st19" d="M66.9,40.6c0,5.5-4.4,9.9-9.9,9.9c-5.5,0-9.9-4.4-9.9-9.9s4.4-9.9,9.9-9.9c0,0,0,0,0,0
				C62.5,30.7,66.9,35.2,66.9,40.6"/>
			<path class="st20" d="M66.8,40.6c0,5.4-4.4,9.8-9.8,9.8s-9.8-4.4-9.8-9.8c0-5.4,4.4-9.8,9.8-9.8c0,0,0,0,0,0
				C62.4,30.8,66.8,35.2,66.8,40.6C66.8,40.6,66.8,40.6,66.8,40.6"/>
			<path class="st21" d="M66.8,40.6c0,5.4-4.4,9.8-9.8,9.8s-9.8-4.4-9.8-9.8s4.4-9.8,9.8-9.8l0,0C62.4,30.8,66.8,35.2,66.8,40.6"/>
			<path class="st22" d="M66.7,40.6c0,5.4-4.4,9.7-9.7,9.7c-5.4,0-9.7-4.4-9.7-9.7c0-5.4,4.4-9.7,9.7-9.7c0,0,0,0,0,0
				C62.4,30.9,66.7,35.3,66.7,40.6C66.7,40.6,66.7,40.6,66.7,40.6"/>
			<path class="st23" d="M66.7,40.6c0,5.3-4.3,9.7-9.7,9.7s-9.7-4.3-9.7-9.7S51.7,31,57,31l0,0C62.3,31,66.7,35.3,66.7,40.6"/>
			<path class="st24" d="M66.6,40.6c0,5.3-4.3,9.6-9.6,9.6s-9.6-4.3-9.6-9.6S51.7,31,57,31l0,0C62.3,31,66.6,35.3,66.6,40.6"/>
			<path class="st25" d="M66.5,40.6c0,5.3-4.3,9.5-9.5,9.5c-5.3,0-9.5-4.3-9.5-9.5c0-5.3,4.3-9.5,9.5-9.5c0,0,0,0,0,0
				C62.3,31.1,66.5,35.3,66.5,40.6"/>
			<path class="st26" d="M66.5,40.6c0,5.2-4.2,9.5-9.5,9.5c-5.2,0-9.5-4.2-9.5-9.5s4.2-9.5,9.5-9.5c0,0,0,0,0,0
				C62.2,31.1,66.5,35.4,66.5,40.6"/>
			<path class="st27" d="M66.4,40.6c0,5.2-4.2,9.4-9.4,9.4s-9.4-4.2-9.4-9.4s4.2-9.4,9.4-9.4c0,0,0,0,0,0
				C62.2,31.2,66.4,35.4,66.4,40.6"/>
			<path class="st28" d="M66.4,40.6c0,5.2-4.2,9.4-9.4,9.4s-9.4-4.2-9.4-9.4s4.2-9.4,9.4-9.4c0,0,0,0,0,0
				C62.2,31.2,66.4,35.4,66.4,40.6L66.4,40.6"/>
			<path class="st29" d="M66.3,40.6c0,5.1-4.2,9.3-9.3,9.3s-9.3-4.2-9.3-9.3s4.2-9.3,9.3-9.3c0,0,0,0,0,0
				C62.1,31.3,66.3,35.5,66.3,40.6"/>
			<path class="st30" d="M66.2,40.6c0,5.1-4.1,9.3-9.3,9.3c-5.1,0-9.3-4.1-9.3-9.3c0-5.1,4.1-9.3,9.3-9.3c0,0,0,0,0,0
				C62.1,31.4,66.3,35.5,66.2,40.6C66.3,40.6,66.3,40.6,66.2,40.6"/>
			<path class="st31" d="M66.2,40.6c0,5.1-4.1,9.2-9.2,9.2s-9.2-4.1-9.2-9.2s4.1-9.2,9.2-9.2c0,0,0,0,0,0
				C62.1,31.4,66.2,35.5,66.2,40.6"/>
			<path class="st32" d="M66.1,40.6c0,5-4.1,9.1-9.1,9.1c-5,0-9.1-4.1-9.1-9.1s4.1-9.1,9.1-9.1S66.1,35.6,66.1,40.6L66.1,40.6"/>
			<path class="st33" d="M66.1,40.6c0,5-4.1,9.1-9.1,9.1s-9.1-4.1-9.1-9.1s4.1-9.1,9.1-9.1c0,0,0,0,0,0C62,31.5,66.1,35.6,66.1,40.6
				"/>
			<path class="st34" d="M66,40.6c0,5-4,9-9,9c-5,0-9-4-9-9s4-9,9-9c0,0,0,0,0,0C62,31.6,66,35.6,66,40.6"/>
			<path class="st35" d="M66,40.6c0,5-4,9-9,9s-9-4-9-9s4-9,9-9c0,0,0,0,0,0C61.9,31.7,66,35.7,66,40.6"/>
			<path class="st36" d="M65.9,40.6c0,4.9-4,8.9-8.9,8.9s-8.9-4-8.9-8.9s4-8.9,8.9-8.9c0,0,0,0,0,0C61.9,31.7,65.9,35.7,65.9,40.6"
				/>
			<path class="st37" d="M65.8,40.6c0,4.9-4,8.8-8.8,8.8c-4.9,0-8.8-4-8.8-8.8s4-8.8,8.8-8.8c0,0,0,0,0,0
				C61.9,31.8,65.8,35.7,65.8,40.6L65.8,40.6"/>
			<path class="st38" d="M65.8,40.6c0,4.9-3.9,8.8-8.8,8.8c-4.9,0-8.8-3.9-8.8-8.8c0-4.9,3.9-8.8,8.8-8.8c0,0,0,0,0,0
				C61.9,31.8,65.8,35.8,65.8,40.6L65.8,40.6"/>
			<path class="st39" d="M65.7,40.6c0,4.8-3.9,8.7-8.7,8.7c-4.8,0-8.7-3.9-8.7-8.7c0-4.8,3.9-8.7,8.7-8.7c0,0,0,0,0,0
				C61.8,31.9,65.7,35.8,65.7,40.6C65.7,40.6,65.7,40.6,65.7,40.6"/>
			<path class="st40" d="M65.7,40.6c0,4.8-3.9,8.7-8.7,8.7c-4.8,0-8.7-3.9-8.7-8.7s3.9-8.7,8.7-8.7c0,0,0,0,0,0
				C61.8,31.9,65.7,35.8,65.7,40.6L65.7,40.6"/>
			<path class="st41" d="M65.6,40.6c0,4.8-3.9,8.6-8.6,8.6c-4.8,0-8.6-3.9-8.6-8.6c0-4.8,3.9-8.6,8.6-8.6c0,0,0,0,0,0
				C61.8,32,65.6,35.9,65.6,40.6C65.6,40.6,65.6,40.6,65.6,40.6"/>
			<path class="st42" d="M65.6,40.6c0,4.7-3.8,8.6-8.6,8.6c-4.7,0-8.6-3.8-8.6-8.6s3.8-8.6,8.6-8.6c0,0,0,0,0,0
				C61.7,32.1,65.6,35.9,65.6,40.6L65.6,40.6"/>
			<path class="st43" d="M65.5,40.6c0,4.7-3.8,8.5-8.5,8.5s-8.5-3.8-8.5-8.5s3.8-8.5,8.5-8.5c0,0,0,0,0,0
				C61.7,32.1,65.5,35.9,65.5,40.6"/>
			<path class="st44" d="M65.4,40.6c0,4.7-3.8,8.4-8.4,8.4c-4.7,0-8.4-3.8-8.4-8.4c0-4.7,3.8-8.4,8.4-8.4c0,0,0,0,0,0
				C61.7,32.2,65.4,36,65.4,40.6"/>
			<path class="st45" d="M65.4,40.6c0,4.6-3.8,8.4-8.4,8.4c-4.6,0-8.4-3.8-8.4-8.4s3.8-8.4,8.4-8.4c0,0,0,0,0,0
				C61.6,32.2,65.4,36,65.4,40.6"/>
			<path class="st46" d="M65.3,40.6c0,4.6-3.7,8.3-8.3,8.3s-8.3-3.7-8.3-8.3s3.7-8.3,8.3-8.3c0,0,0,0,0,0
				C61.6,32.3,65.3,36,65.3,40.6L65.3,40.6"/>
			<path class="st47" d="M65.3,40.6c0,4.6-3.7,8.3-8.3,8.3s-8.3-3.7-8.3-8.3s3.7-8.3,8.3-8.3S65.3,36.1,65.3,40.6L65.3,40.6"/>
			<path class="st48" d="M65.2,40.6c0,4.5-3.7,8.2-8.2,8.2s-8.2-3.7-8.2-8.2s3.7-8.2,8.2-8.2S65.2,36.1,65.2,40.6L65.2,40.6"/>
			<path class="st49" d="M65.1,40.6c0,4.5-3.7,8.2-8.2,8.2s-8.2-3.7-8.2-8.2s3.7-8.2,8.2-8.2c0,0,0,0,0,0
				C61.5,32.5,65.1,36.1,65.1,40.6C65.1,40.6,65.1,40.6,65.1,40.6"/>
			<path class="st50" d="M65.1,40.6c0,4.5-3.6,8.1-8.1,8.1s-8.1-3.6-8.1-8.1s3.6-8.1,8.1-8.1S65.1,36.2,65.1,40.6"/>
			<path class="st51" d="M65,40.6c0,4.4-3.6,8-8,8c-4.4,0-8-3.6-8-8s3.6-8,8-8c0,0,0,0,0,0C61.4,32.6,65,36.2,65,40.6L65,40.6"/>
			<path class="st52" d="M65,40.6c0,4.4-3.6,8-8,8s-8-3.6-8-8c0-4.4,3.6-8,8-8c0,0,0,0,0,0C61.4,32.6,65,36.2,65,40.6"/>
			<path class="st53" d="M64.9,40.6c0,4.4-3.5,7.9-7.9,7.9s-7.9-3.5-7.9-7.9s3.5-7.9,7.9-7.9S64.9,36.2,64.9,40.6L64.9,40.6"/>
			<path class="st54" d="M64.9,40.6c0,4.3-3.5,7.9-7.9,7.9s-7.9-3.5-7.9-7.9s3.5-7.9,7.9-7.9c0,0,0,0,0,0
				C61.3,32.8,64.9,36.3,64.9,40.6L64.9,40.6"/>
			<path class="st55" d="M64.8,40.6c0,4.3-3.5,7.8-7.8,7.8s-7.8-3.5-7.8-7.8c0-4.3,3.5-7.8,7.8-7.8c0,0,0,0,0,0
				C61.3,32.8,64.8,36.3,64.8,40.6"/>
			<path class="st56" d="M64.7,40.6c0,4.3-3.5,7.7-7.7,7.7c-4.3,0-7.7-3.5-7.7-7.7c0-4.3,3.5-7.7,7.7-7.7c0,0,0,0,0,0
				C61.3,32.9,64.7,36.3,64.7,40.6L64.7,40.6"/>
			<path class="st57" d="M64.7,40.6c0,4.2-3.4,7.7-7.7,7.7s-7.7-3.4-7.7-7.7c0-4.2,3.4-7.7,7.7-7.7c0,0,0,0,0,0
				C61.2,32.9,64.7,36.4,64.7,40.6"/>
			<path class="st58" d="M64.6,40.6c0,4.2-3.4,7.6-7.6,7.6c-4.2,0-7.6-3.4-7.6-7.6c0-4.2,3.4-7.6,7.6-7.6c0,0,0,0,0,0
				C61.2,33,64.6,36.4,64.6,40.6L64.6,40.6"/>
			<path class="st59" d="M64.6,40.6c0,4.2-3.4,7.6-7.6,7.6c-4.2,0-7.6-3.4-7.6-7.6c0-4.2,3.4-7.6,7.6-7.6c0,0,0,0,0,0
				C61.2,33,64.6,36.4,64.6,40.6L64.6,40.6"/>
			<path class="st60" d="M64.5,40.6c0,4.2-3.4,7.5-7.5,7.5c-4.2,0-7.5-3.4-7.5-7.5c0-4.2,3.4-7.5,7.5-7.5c0,0,0,0,0,0
				C61.1,33.1,64.5,36.5,64.5,40.6"/>
			<path class="st61" d="M64.4,40.6c0,4.1-3.3,7.5-7.5,7.5c-4.1,0-7.5-3.3-7.5-7.5c0-4.1,3.3-7.5,7.5-7.5c0,0,0,0,0,0
				C61.1,33.2,64.5,36.5,64.4,40.6L64.4,40.6"/>
			<path class="st62" d="M64.4,40.6c0,4.1-3.3,7.4-7.4,7.4s-7.4-3.3-7.4-7.4s3.3-7.4,7.4-7.4c0,0,0,0,0,0
				C61.1,33.2,64.4,36.5,64.4,40.6C64.4,40.6,64.4,40.6,64.4,40.6"/>
			<path class="st63" d="M64.3,40.6c0,4.1-3.3,7.3-7.3,7.3s-7.3-3.3-7.3-7.3s3.3-7.3,7.3-7.3c0,0,0,0,0,0
				C61.1,33.3,64.3,36.6,64.3,40.6"/>
			<path class="st2" d="M64.3,40.6c0,4-3.3,7.3-7.3,7.3c-4,0-7.3-3.3-7.3-7.3c0-4,3.3-7.3,7.3-7.3c0,0,0,0,0,0
				C61,33.3,64.3,36.6,64.3,40.6L64.3,40.6"/>
		</g>
	</g>
</g>
</svg>
