<svg xmlns="http://www.w3.org/2000/svg" width="420" height="420" viewBox="0 0 420 420">
    <g fill="none" fill-rule="evenodd">
        <path d="M0 0h420v420H0z"/>
        <path fill="#F22751" d="M94.64 59.88c-10.08 10.5-22.68 20.16-37.8 29.4-15.12 8.4-29.4 14.28-42.84 17.64v48.72c27.72-7.98 50.4-20.16 68.46-36.54v240.66h49.14V59.88H94.64zM295.4 54c34.86 0 62.16 14.28 81.9 43.68 18.48 27.72 27.72 65.1 27.72 112.14 0 47.04-9.24 84.42-27.72 112.14-19.74 28.98-47.04 43.68-81.9 43.68-35.28 0-62.58-14.7-81.9-43.68-18.48-27.72-27.72-65.1-27.72-112.14 0-47.04 9.24-84.42 27.72-112.14C232.82 68.28 260.12 54 295.4 54zm0 41.58c-23.94 0-40.74 13.02-50.4 39.9-6.72 18.06-10.08 42.84-10.08 74.34 0 31.08 3.36 55.86 10.08 74.34 9.66 26.46 26.46 39.9 50.4 39.9 23.52 0 40.32-13.44 50.4-39.9 6.72-18.48 10.08-43.26 10.08-74.34 0-31.5-3.36-56.28-10.08-74.34-10.08-26.88-26.88-39.9-50.4-39.9z" opacity=".2"/>
    </g>
</svg>
