<?xml version="1.0" encoding="utf-8"?>
<!-- Generator: Adobe Illustrator 22.0.1, SVG Export Plug-In . SVG Version: 6.00 Build 0)  -->
<svg version="1.1" id="圖層_1" xmlns="http://www.w3.org/2000/svg" xmlns:xlink="http://www.w3.org/1999/xlink" x="0px" y="0px"
	 viewBox="0 0 86 86" style="enable-background:new 0 0 86 86;" xml:space="preserve">
<style type="text/css">
	.st0{fill:#FFFFFF;}
	.st1{fill:#E2444B;}
</style>
<g id="圖層_2_1_">
	<g id="圖層_1-2">
		<g id="圖稿_22">
			<path class="st0" d="M86,43c0,23.7-19.3,43-43,43S0,66.7,0,43S19.3,0,43,0S86,19.3,86,43"/>
			<g>
				<path class="st1" d="M57.3,8.4c-5.5,0-9.9,4.4-9.9,9.9c0,5.5,4.4,9.9,9.9,9.9c5.5,0,9.9-4.4,9.9-9.9
					C67.2,12.9,62.8,8.4,57.3,8.4C57.3,8.4,57.3,8.4,57.3,8.4 M62.7,21.8c0,1.8-1.1,3.4-2.7,4l-0.1,0c-1.4,0.6-3.4,1.1-5.7,0.4
					c-3.8-1.2-3.8-4.7-3.8-4.7h3.3c0.1,1.2,1.4,2.1,2.9,2.1c1.6,0,2.9-1,2.9-2.2c0-1.1-1.1-2-2.4-2.2h-1.5V17h2
					c1.2,0,2.2-0.9,2.3-2.2c0-1.2-1-2.2-2.3-2.2c-1.1,0-2.1,0.8-2.2,1.9h-0.1l-3.3-0.1c0,0,1.8-4.8,7.3-4.4c2.3,0.3,4.1,1.8,4.1,3.9
					c0,1.9-1.4,3.5-3.2,3.8C61.7,18.6,62.7,20.1,62.7,21.8"/>
				<polygon class="st1" points="40.2,12.3 43.2,11.6 45.3,27.3 				"/>
				<polygon class="st1" points="35.9,22.6 37.5,21.5 41.4,28.9 				"/>
				<polygon class="st1" points="25.5,25.3 27.7,22.5 38.1,32 				"/>
				<polygon class="st1" points="23.5,58.1 25.1,60.1 35.3,54.7 				"/>
				<polygon class="st1" points="37.6,57.2 31.8,60.5 33.3,61.7 				"/>
				<polygon class="st1" points="40.3,59.1 34.2,69.3 37.2,70.4 				"/>
				<polygon class="st1" points="62,33.1 71,21.9 73.5,24.2 				"/>
				<polygon class="st1" points="64.3,36.8 71.6,32.3 72.9,34.8 				"/>
				<polygon class="st1" points="65.8,40.3 81.9,38.7 81.6,41.9 				"/>
				<path class="st1" d="M49.7,30.2c-7.4,0-13.5,6-13.5,13.5s6,13.5,13.5,13.5s13.5-6,13.5-13.5S57.1,30.2,49.7,30.2L49.7,30.2
					 M57.2,37.6h-8.4v2.5h2.4c6.2,0.7,5.9,6.3,5.9,6.3c-0.2,6-7.4,6.4-7.4,6.4h-7v-3.9h5.7c0,0,4.3,0.2,4.3-2.9
					c0-2.7-3.1-2.7-3.1-2.7H45v-9.3h12.3L57.2,37.6z"/>
				<path class="st1" d="M24.7,39.8l-1.6,0c0.3-0.4,0.5-0.8,0.7-1.2c0.2-0.4,0.4-0.8,0.6-1.2h4.1L28,36l-0.8,0.7h-6.9l0.3,0.8H22
					c-0.1,0.5-0.3,1-0.5,1.6c-0.2,0.6-0.4,1.2-0.7,1.8c-0.3,0.6-0.6,1.2-0.9,1.8c-0.3,0.6-0.7,1.2-1,1.8c0.4-0.3,0.9-0.7,1.3-1.1
					c0.4-0.4,0.8-0.8,1.2-1.3c0,0.2,0.1,0.4,0.1,0.7c0,0.2,0.1,0.5,0.1,0.7c0,0.2,0,0.5,0.1,0.7c0,0.2,0,0.4,0,0.6l1.4-1
					C22.5,44.9,21.8,46,21,47c-0.8,1-1.7,1.9-2.7,2.7c0.9-0.3,1.7-0.7,2.5-1.2c0.9-0.6,1.6-1.2,2.4-1.9c0.8-0.8,1.4-1.6,2-2.5
					c0.6-0.9,1.1-2,1.5-3l0.7-0.8l-2.3-0.9L24.7,39.8z M24.1,41.8c-0.2,0.4-0.3,0.8-0.5,1.2c-0.1-0.3-0.3-0.5-0.5-0.7
					c-0.4-0.3-0.8-0.6-1.3-0.7c0.3-0.3,0.5-0.7,0.8-1h1.9C24.4,41,24.2,41.4,24.1,41.8"/>
				<polygon class="st1" points="30.6,38.4 30,38.9 28.9,46.1 26.9,46.1 28.2,38 				"/>
				<path class="st1" d="M31.5,35.9l2.7,0.4l-0.6,0.5l-1.4,8.7c-0.2,1.2-0.5,2.1-1,2.8c-0.4,0.7-1.1,1.2-1.8,1.4
					c-0.2,0.1-0.4,0.1-0.6,0.1c-0.2-0.1-0.3-0.2-0.4-0.4l-0.9-1.6c0.4,0,0.7,0,1.1-0.1c0.3,0,0.5-0.2,0.7-0.3
					c0.2-0.2,0.3-0.5,0.4-0.7c0.1-0.4,0.2-0.8,0.3-1.2L31.5,35.9z"/>
				<path class="st1" d="M8.5,39.8l-0.4,2.4c0.2-0.1,0.5-0.1,0.7-0.2l0.8-0.2c-0.2,0.2-0.5,0.4-0.7,0.6c-0.3,0.2-0.6,0.5-1,0.7
					l-0.5,2.8c-0.1,0.8-0.3,1.6-0.7,2.3c-0.3,0.5-0.8,1-1.3,1.3c-0.2,0.1-0.4,0.2-0.5,0.2c-0.2,0-0.4-0.1-0.4-0.3L3.6,48
					c0.5,0,0.9-0.1,1.1-0.4c0.3-0.3,0.4-0.8,0.5-1.5l0.2-1.5l-0.3,0.1c-0.1,0-0.2,0.1-0.3,0.1c-0.1,0-0.2,0-0.3,0
					c-0.1,0-0.1-0.1-0.1-0.3l-0.1-1.8c0.2,0,0.4,0,0.7,0c0.3,0,0.5,0,0.8-0.1l0.5-2.8H5.4l-0.2-0.7h1.3l0.5-3.2l2.7,0.3l-0.7,0.5
					l-0.4,2.4h0l0.7-0.5l0.5,1.2L8.5,39.8z"/>
				<polygon class="st1" points="10.2,46.5 8.4,46.5 8.2,45.8 10.4,45.8 10.8,43 9.7,43 9.5,42.3 10.9,42.3 11.3,39.6 10.1,39.6 
					9.8,38.9 11.5,38.9 11.9,35.9 14.7,36.2 14.1,36.6 12,49.7 9.7,49.7 				"/>
				<polygon class="st1" points="15.5,46.5 14.9,49.7 12.7,49.7 14.9,35.9 17.7,36.2 17,36.7 16.7,38.9 17.2,38.9 18,38.4 
					18.5,39.6 16.5,39.6 16.1,42.3 16.5,42.3 17.2,41.7 17.8,43 16,43 15.6,45.8 16.4,45.8 17.2,45.2 17.7,46.5 				"/>
				<polygon class="st1" points="60.6,73.6 63,71.9 57.5,59.8 				"/>
				<polygon class="st1" points="60.6,57.3 64,64.2 65.5,62.6 				"/>
				<polygon class="st1" points="63,54.3 74.4,62 75.8,58.7 				"/>
			</g>
		</g>
	</g>
</g>
</svg>
