<?xml version="1.0" encoding="utf-8"?>
<!-- Generator: Adobe Illustrator 22.0.1, SVG Export Plug-In . SVG Version: 6.00 Build 0)  -->
<svg version="1.1" id="圖層_1" xmlns="http://www.w3.org/2000/svg" xmlns:xlink="http://www.w3.org/1999/xlink" x="0px" y="0px"
	 viewBox="0 0 154 59" style="enable-background:new 0 0 154 59;" xml:space="preserve">
<style type="text/css">
	.st0{fill:#FFFFFF;}
</style>
<g id="圖層_2_1_">
	<g id="圖層_1-2">
		<g id="圖稿_16">
			<polygon class="st0" points="40.2,13 46.8,13 25.1,51.6 18.5,51.6 			"/>
			<path class="st0" d="M32.5,22.8c0,2-1.6,3.5-3.5,3.5c-2,0-3.5-1.6-3.5-3.5c0-2,1.6-3.5,3.5-3.5c0,0,0,0,0,0
				C30.9,19.3,32.5,20.9,32.5,22.8"/>
			<path class="st0" d="M82.7,18.9c2.6,1.4,6.5,2.5,11.8,1.1c7.7-2,8.5-9.1,8.5-9.1c-11.2,6.7-15.7,2.9-21-1.5s-16,0.9-16,0.9
				s5.3-2.7,12.8,5.5l-9.9,13.5c-1.3,1.8-0.9,4.3,0.9,5.6c0.7,0.5,1.5,0.8,2.4,0.8h6.2l-3.8,7.3c-0.7,1.5-2.2,2.4-3.8,2.4H65
				c1.6,4,6.1,6,10.2,4.4c2-0.8,3.6-2.4,4.4-4.4l4.9-9.8h9.2c1.9,0,3.5-1.6,3.5-3.5c0,0,0,0,0,0H86.3l3.2-6.4c-3.6,0-6.9,2-8.5,5.2
				l-0.6,1.2h-4.2c-0.8,0-1.4-0.6-1.4-1.4c0-0.3,0.1-0.5,0.2-0.8L82.7,18.9z"/>
			<path class="st0" d="M68.5,38h7l-2.2,3.8c-0.7,1.1-1.9,1.7-3.2,1.7h-5L68.5,38z"/>
			<path class="st0" d="M93.7,42.9c0,2.4-1.9,4.3-4.3,4.3c-2.4,0-4.3-1.9-4.3-4.3c0-2.4,1.9-4.3,4.3-4.3l0,0
				C91.8,38.7,93.7,40.6,93.7,42.9"/>
			<path class="st0" d="M133.6,6.6c0,0-6.8-7-15.3-5.6s-14.9,11.5-8.7,21.5c0.7,1.2,1.5,2.3,2.3,3.3c-4.3,2.7-16.7,11.3-16.7,21.8
				c0,11.6,25,15.4,31.8,0c4.8-10.8,0.7-17.4-2.8-20.9l6.3-5c0,0,1-1.8-1.8-2c-2.2-0.2-7.4,2-9.4,2.9c-1.9-1.7-4.3-4.4-3.3-7.9
				c1.6-5.9,6.8-6.8,10.8-2.2c0,0,1.7,3.1,5,2.4c1.8-0.4,3.5-1.7,3.7-3.6C135.6,9.6,134.9,7.9,133.6,6.6 M120.3,42.2
				c-3.5,7.9-16.3,7.8-16.3,2.4c0-3.1,9.7-10.3,13.2-12.9C120.5,35,122.4,37.6,120.3,42.2"/>
			<path class="st0" d="M133.6,6.6c0,0-6.8-7-15.3-5.6s-14.9,11.5-8.7,21.5c0.7,1.2,1.5,2.3,2.3,3.3c-4.3,2.7-16.7,11.3-16.7,21.8
				c0,11.6,25,15.4,31.8,0c4.8-10.8,0.7-17.4-2.8-20.9l6.3-5c0,0,1-1.8-1.8-2c-2.2-0.2-7.4,2-9.4,2.9c-1.9-1.7-4.3-4.4-3.3-7.9
				c1.6-5.9,6.8-6.8,10.8-2.2c0,0,1.7,3.1,5,2.4c1.8-0.4,3.5-1.7,3.7-3.6C135.6,9.6,134.9,7.9,133.6,6.6z M120.3,42.2
				c-3.5,7.9-16.3,7.8-16.3,2.4c0-3.1,9.7-10.3,13.2-12.9C120.5,35,122.4,37.6,120.3,42.2z"/>
			<path class="st0" d="M49.7,38.7c-0.5-0.7-0.8-1.6-0.8-2.6c0.1-0.9,0.5-1.8,2-1.9h9.4c1.9,0,3.6-1,4.4-2.7l0.7-1.4h-4.8L69.9,15
				H58.6l3.9-6.6h-2.1c-2.2,0-4.3,1.2-5.4,3.1L52.9,15h-3.1c-1.7,0-3.1,1.4-3.1,3.1c0,0,0,0,0,0H51l-7.2,12.1h-2.6
				c-2.5,0-4.5,2-4.5,4.5h4.4L32.7,49h6.6l4.9-8.1l4.7,5.8L50,48c1.8,1.8,4.4,2.6,6.9,2.1c3.1-0.5,6.1-3.7,6.4-6.8
				c0.5-4.3-2.5-8.2-6.8-8.7c-1.3-0.2-2.6,0-3.8,0.5l4.7,5.4c1,1,1.1,2.6,0.1,3.7c-1,1-2.6,1.1-3.7,0.1L49.7,38.7z M50.3,30.1L57,18
				h4.5l-7,12.1H50.3z"/>
		</g>
	</g>
</g>
</svg>
