<?xml version="1.0" encoding="utf-8"?>
<!-- Generator: Adobe Illustrator 22.0.1, SVG Export Plug-In . SVG Version: 6.00 Build 0)  -->
<svg version="1.1" id="圖層_1" xmlns="http://www.w3.org/2000/svg" xmlns:xlink="http://www.w3.org/1999/xlink" x="0px" y="0px"
	 viewBox="0 0 86 86" style="enable-background:new 0 0 86 86;" xml:space="preserve">
<style type="text/css">
	.st0{fill:#FFFFFF;}
	.st1{fill:none;}
	.st2{fill:#218DDD;}
</style>
<g>
	<circle class="st0" cx="43" cy="43" r="43"/>
	<path class="st1" d="M5,5h77v77H5V5z"/>
	<g>
		<path class="st2" d="M53.5,27.9c-5.6,0-11,2.2-15,6L38,34.4c-2.4,2.3-2.5,6.2-0.1,8.6c2.3,2.4,6.2,2.5,8.6,0.1
			c0,0,0.1-0.1,0.1-0.1l1.1-1.1c0.3-0.4,0.7-0.8,1-1.1c1.9-1.7,4.4-2.4,6.9-2.3c2.7,0.2,6.4,1.2,9.2,4.8c1.9,2.3,2.3,5.2,2.1,7.8
			c-0.4,5.1-3.1,9.7-7.2,12.9c-2.1,1.6-4.6,3-7.8,3.5c-4.8,0.7-9.2-0.4-12.3-1.2c0,0,7.6,5.6,15.6,5c10.7-0.9,19.3-9.5,20-20.2
			C76,39.1,66.9,28.8,55,28C54.5,27.9,54,27.9,53.5,27.9"/>
		<path class="st2" d="M63.9,16.7c-7.1-1.1-11.2,0.5-11.2,0.5c-15.2,4.6-16.9,17.4-16.9,17.4c1.5-1.8,7.6-7.9,13.9-9
			c4.5-0.8,9.6-0.6,12.3-0.2c0.3,0,0.5,0.1,0.7,0.2c0.8,0.2,1.6,0.2,2.4,0c1.8-0.5,3.1-2.1,3.3-4C68.6,18.9,66.6,17,63.9,16.7"/>
		<path class="st2" d="M41,20.2c0-2.3-1.8-4.1-4.1-4.1c-1.3,0-2.5,0.6-3.3,1.7l0,0c-2,1.9-6.7,9.4-3.8,17.3s7.6,8.8,7.6,8.8
			c-1.2-1.1-2.9-4.7-2.9-4.7c-2.4-7.4,3.2-14,5-15.8C40.4,22.6,41,21.4,41,20.2"/>
		<path class="st2" d="M26.2,31.6L26.2,31.6c0-1.9-1.6-3.5-3.6-3.5s-3.5,1.6-3.5,3.6c0,0.8,0.3,1.5,0.7,2.1
			C25.9,45.7,36.1,44,36.1,44C27.6,41.8,26.2,31.6,26.2,31.6"/>
		<path class="st2" d="M34.7,45.6c-4.7,0.1-7.7-1.2-9.4-2.3c-0.7-0.5-1.3-1.1-1.8-1.7c-0.9-1-2.4-1.1-3.3-0.2s-1.1,2.4-0.2,3.3
			c0.1,0.1,0.2,0.2,0.3,0.3v0c0,0,0.1,0,0.1,0.1c0.1,0,0.1,0.1,0.2,0.1C26.9,49.3,34.7,45.6,34.7,45.6"/>
		<path class="st2" d="M47.3,45v9.9h4.5c0,0,3,0,3,2.9c0,3.4-4.1,3.1-4.1,3.1h-5.6v4.1h6.8c0,0,7-0.4,7.1-6.8c0,0,0.3-5.9-5.7-6.7
			H51v-2.6h8.2V45H47.3z"/>
		<path class="st2" d="M18.2,50.1l-1.9,14c0,0.2-0.2,0.4-0.4,0.4h-3.7c-0.2,0-0.4-0.2-0.4-0.5c0,0,0-0.1,0-0.1l2.1-8.7
			c0-0.2-0.1-0.3-0.2-0.4c0,0-0.1,0-0.1,0L12.2,55c-0.2,0-0.3-0.1-0.3-0.3c0,0,0,0,0,0l0.2-2.4c0-0.1,0.1-0.2,0.2-0.3l5.5-2.2
			c0.2-0.1,0.4,0,0.4,0.2C18.2,50,18.3,50.1,18.2,50.1"/>
		<path class="st2" d="M26.8,50.1l-1.9,14c0,0.2-0.2,0.4-0.4,0.4h-3.7c-0.2,0-0.4-0.2-0.4-0.5c0,0,0-0.1,0-0.1l2.1-8.7
			c0-0.2-0.1-0.3-0.2-0.4c0,0-0.1,0-0.1,0L20.8,55c-0.2,0-0.3-0.1-0.3-0.3c0,0,0,0,0,0l0.2-2.4c0-0.1,0.1-0.2,0.2-0.3l5.5-2.2
			c0.2-0.1,0.4,0,0.4,0.2C26.8,50,26.8,50.1,26.8,50.1"/>
		<path class="st2" d="M28.2,61.7l1.5-6.6h-1l0.4-1.8h3.9L30.9,62c-0.1,0.4,0.2,0.8,0.5,0.8h11l-0.4,1.8H30.3
			C27.3,64.6,28.2,61.7,28.2,61.7"/>
		<polygon class="st2" points="33,52.6 30.1,52.6 30.4,50.3 33.3,50.3 		"/>
		<polygon class="st2" points="33.8,58.2 32.1,62.3 34.9,62.3 36.7,58.2 		"/>
		<path class="st2" d="M43.9,53.4l0.4-1.8h-3.5l0.3-1.2h-2.8l-0.3,1.2h-0.8l0.3-0.9h-2.8L33,55.2h2.8l0.6-1.8h1.1L37,55.8h-4.1
			l-0.4,1.8h6.5l-0.8,3.8c-0.1,0.5,0.2,0.9,0.5,0.9h3.7l0.4-1.8h-1.3c-0.2,0-0.3-0.2-0.2-0.4l0.6-2.5h1.5l0.4-1.8h-3.8l0.5-2.4
			L43.9,53.4z"/>
	</g>
</g>
</svg>
