<svg xmlns="http://www.w3.org/2000/svg" xmlns:xlink="http://www.w3.org/1999/xlink" width="151" height="52" viewBox="0 0 151 52">
    <defs>
        <path id="a" d="M.954.114h47.85v51.884H.954z"/>
        <path id="c" d="M30.064.114H.422v51.885h29.642V.114z"/>
    </defs>
    <g fill="none" fill-rule="evenodd">
        <path d="M-15-15h180v80H-15z"/>
        <g transform="translate(43 -.114)">
            <mask id="b" fill="#fff">
                <use xlink:href="#a"/>
            </mask>
            <path fill="#FFF" d="M48.804 13.676c0 7.49-6.073 13.563-13.565 13.563-.118 0-.232-.002-.35-.005H15.334l-9.27 24.764-5.11-13.654 4.6-12.288h10.22l-.003.005h12.765a8.707 8.707 0 0 0 2.275-.387c4.473-1.383 7.775-6.23 7.775-11.998 0-5.77-3.302-10.617-7.775-11.997a8.843 8.843 0 0 0-2.61-.396h-4.607V.113h11.645c7.492 0 13.565 6.073 13.565 13.563" mask="url(#b)"/>
        </g>
        <path fill="#FFF" d="M58.334 27.12l-9.27 24.765h-10.22l9.27-24.765zM9.71 25.942h10.222l-9.71 25.943H0z"/>
        <g transform="translate(19 -.114)">
            <mask id="d" fill="#fff">
                <use xlink:href="#c"/>
            </mask>
            <path fill="#FFF" d="M30.064 51.999H19.842l-9.71-25.942L.422.114h10.22l9.712 25.943 4.6 12.288z" mask="url(#d)"/>
        </g>
        <path fill="#FFF" d="M107.73 24.48l1.35 2.34c-3.78 1.17-8.85 1.77-15.15 1.77l-.84-2.52c5.79 0 10.68-.54 14.64-1.59zm-1.47 4.05l2.37.63c-.57 2.34-1.32 4.38-2.25 6.18l-2.25-.81c.81-1.59 1.53-3.6 2.13-6zM116.73 24l1.89 2.13c-2.22 2.73-4.92 4.98-8.1 6.78l-1.23-2.58c3.03-1.62 5.52-3.72 7.44-6.33zm1.32 8.1l1.86 2.1c-2.4 2.94-5.37 5.4-8.88 7.35l-1.23-2.58c3.36-1.77 6.12-4.05 8.25-6.87zm.87 8.13l1.92 2.16c-2.88 3.81-6.42 6.96-10.62 9.45l-1.29-2.73c4.08-2.22 7.41-5.19 9.99-8.88zm-24.87-2.55h6.3v-2.67h2.82v2.67h5.7v2.76h-5.7v1.41c1.83.99 3.66 2.13 5.52 3.45l-1.68 2.55c-1.5-1.41-2.79-2.52-3.84-3.36v7.41h-2.82v-8.4c-1.62 2.55-3.51 4.68-5.67 6.42L93 47.46c2.82-1.98 5.04-4.32 6.66-7.02h-5.61v-2.76zm7.41-8.7l-2.4.66c.66 1.47 1.23 2.97 1.68 4.5l2.4-.87c-.42-1.32-.96-2.73-1.68-4.29zm-5.4.57c.84 1.53 1.56 3.3 2.22 5.28L96 35.4c-.6-1.8-1.32-3.48-2.19-5.1l2.25-.75zm27.36-4.35h26.82v2.46h-8.79v1.92h6.69v7.08h-22.62v-7.08h6.69v-1.92h-8.79V25.2zm15.33 4.38v-1.92h-3.84v1.92h3.84zm6.63 4.77v-2.43h-3.93v2.43h3.93zm-6.63 0v-2.43h-3.84v2.43h3.84zm-6.54 0v-2.43h-3.93v2.43h3.93zm-5.31 4.05v2.34h20.07V38.4H126.9zm-3 3.99h25.86v2.43h-11.22v6.99h-2.76v-6.99H123.9v-2.43zm19.35 3.06c2.7 1.38 4.95 2.76 6.81 4.14l-1.98 1.98c-1.59-1.32-3.84-2.76-6.72-4.32l1.89-1.8zm-11.94.06l1.89 1.68c-2.01 1.68-4.47 3.12-7.35 4.38l-1.71-2.22c2.85-1.11 5.25-2.4 7.17-3.84z"/>
    </g>
</svg>
