<svg xmlns="http://www.w3.org/2000/svg" width="88" height="88" viewBox="0 0 88 88">
    <defs>
        <radialGradient id="a" cx="77.546%" cy="20.309%" r="122.816%" fx="77.546%" fy="20.309%">
            <stop offset="0%" stop-color="#F8EEA4"/>
            <stop offset="100%" stop-color="#B9760B"/>
        </radialGradient>
    </defs>
    <path fill="url(#a)" fill-rule="nonzero" d="M44 88C19.7 88 0 68.3 0 44S19.7 0 44 0s44 19.7 44 44-19.7 44-44 44zm0-2c23.196 0 42-18.804 42-42S67.196 2 44 2 2 20.804 2 44s18.804 42 42 42zM25.338 24.673c-.484-.87.462-1.835 1.342-1.37l38.368 20.313a1 1 0 0 1 0 1.768L26.68 65.696c-.88.466-1.826-.5-1.342-1.37L36.353 44.5 25.338 24.673zM38.37 44.014a1 1 0 0 1 0 .972l-9.648 17.366L62.443 44.5l-33.72-17.852 9.648 17.366z"/>
</svg>
