
<svg xmlns="http://www.w3.org/2000/svg" width="88" height="88" viewBox="0 0 88 88">
    <defs>
        <linearGradient id="a" x1="1.269%" y1="50%" y2="50%">
            <stop offset="0%" stop-color="#9F7870"/>
            <stop offset="27.828%" stop-color="#D39686"/>
            <stop offset="49.247%" stop-color="#F2CCA9"/>
            <stop offset="76.038%" stop-color="#C09576"/>
            <stop offset="100%" stop-color="#D89D75"/>
        </linearGradient>
    </defs>
    <g fill="none" fill-rule="evenodd">
        <circle cx="44" cy="44" r="43" stroke="url(#a)" stroke-width="2"/>
        <g fill-rule="nonzero">
            <path fill="#303C42" d="M58.979 62.208c-7.447 0-13.98-5.373-13.98-11.5 0-.53-.447-.958-.999-.958s-.999.429-.999.958c0 7.148 7.466 13.417 15.978 13.417.552 0 .998-.429.998-.958 0-.53-.446-.959-.998-.959zM29.021 26.956c.178 0 .357-.045.52-.139 8.448-4.92 19.403-5.1 27.955-.563.484.257 1.09.089 1.358-.375a.938.938 0 0 0-.39-1.302A30.93 30.93 0 0 0 43.999 21c-5.4.009-10.808 1.45-15.496 4.178a.94.94 0 0 0-.336 1.316c.19.298.517.462.854.462zM65.844 37.786C61.976 31.082 53.403 26.75 44 26.75s-17.976 4.332-21.844 11.036a.94.94 0 0 0 .39 1.303 1.022 1.022 0 0 0 1.358-.375c3.52-6.103 11.41-10.047 20.096-10.047 8.687 0 16.576 3.944 20.096 10.047.184.317.523.494.874.494.164 0 .33-.038.484-.12a.94.94 0 0 0 .39-1.302z"/>
            <path fill="#303C42" d="M32.017 51.667c0-6.664 5.04-11.5 11.983-11.5 7.279 0 11.983 4.137 11.983 10.541 0 .53.447.959.999.959s.998-.429.998-.959c0-7.451-5.619-12.458-13.98-12.458-7.97 0-13.98 5.768-13.98 13.417 0 5.6 2.079 10.235 6.744 15.029.197.202.463.304.73.304.243 0 .49-.085.68-.258a.93.93 0 0 0 .05-1.355c-4.294-4.411-6.207-8.642-6.207-13.72z"/>
            <path fill="#303C42" d="M44 32.5c-11.571 0-19.972 7.657-19.972 18.208 0 2.845.997 5.543 2.074 8.034.21.49.8.719 1.304.518.51-.203.751-.763.54-1.252-.998-2.309-1.92-4.79-1.92-7.3 0-9.592 7.391-16.291 17.974-16.291 10.247 0 17.974 7.416 17.974 17.25 0 2.642-2.239 4.791-4.992 4.791-2.754 0-4.993-2.15-4.993-4.791C51.989 47.153 48.704 44 44 44s-7.989 3.153-7.989 7.667c0 6.253 3.687 11.514 10.66 15.213.153.082.319.12.483.12.35 0 .692-.179.873-.495a.938.938 0 0 0-.39-1.302c-6.389-3.39-9.628-7.944-9.628-13.536 0-3.972 3.009-5.75 5.991-5.75 2.982 0 5.991 1.778 5.991 5.75 0 3.698 3.137 6.708 6.99 6.708 3.855 0 6.99-3.01 6.99-6.708C63.972 40.739 55.387 32.5 44 32.5z"/>
            <path fill="#303C42" d="M58.979 62.208c-7.447 0-13.98-5.373-13.98-11.5 0-.53-.447-.958-.999-.958s-.999.429-.999.958c0 7.148 7.466 13.417 15.978 13.417.552 0 .998-.429.998-.958 0-.53-.446-.959-.998-.959zM29.021 26.956c.178 0 .357-.045.52-.139 8.448-4.92 19.403-5.1 27.955-.563.484.257 1.09.089 1.358-.375a.938.938 0 0 0-.39-1.302A30.93 30.93 0 0 0 43.999 21c-5.4.009-10.808 1.45-15.496 4.178a.94.94 0 0 0-.336 1.316c.19.298.517.462.854.462zM65.844 37.786C61.976 31.082 53.403 26.75 44 26.75s-17.976 4.332-21.844 11.036a.94.94 0 0 0 .39 1.303 1.022 1.022 0 0 0 1.358-.375c3.52-6.103 11.41-10.047 20.096-10.047 8.687 0 16.576 3.944 20.096 10.047.184.317.523.494.874.494.164 0 .33-.038.484-.12a.94.94 0 0 0 .39-1.302z"/>
            <path fill="#303C42" d="M32.017 51.667c0-6.664 5.04-11.5 11.983-11.5 7.279 0 11.983 4.137 11.983 10.541 0 .53.447.959.999.959s.998-.429.998-.959c0-7.451-5.619-12.458-13.98-12.458-7.97 0-13.98 5.768-13.98 13.417 0 5.6 2.079 10.235 6.744 15.029.197.202.463.304.73.304.243 0 .49-.085.68-.258a.93.93 0 0 0 .05-1.355c-4.294-4.411-6.207-8.642-6.207-13.72z"/>
            <path fill="#303C42" d="M44 32.5c-11.571 0-19.972 7.657-19.972 18.208 0 2.845.997 5.543 2.074 8.034.21.49.8.719 1.304.518.51-.203.751-.763.54-1.252-.998-2.309-1.92-4.79-1.92-7.3 0-9.592 7.391-16.291 17.974-16.291 10.247 0 17.974 7.416 17.974 17.25 0 2.642-2.239 4.791-4.992 4.791-2.754 0-4.993-2.15-4.993-4.791C51.989 47.153 48.704 44 44 44s-7.989 3.153-7.989 7.667c0 6.253 3.687 11.514 10.66 15.213.153.082.319.12.483.12.35 0 .692-.179.873-.495a.938.938 0 0 0-.39-1.302c-6.389-3.39-9.628-7.944-9.628-13.536 0-3.972 3.009-5.75 5.991-5.75 2.982 0 5.991 1.778 5.991 5.75 0 3.698 3.137 6.708 6.99 6.708 3.855 0 6.99-3.01 6.99-6.708C63.972 40.739 55.387 32.5 44 32.5z"/>
            <path fill="url(#a)" d="M36.979 41.208c-7.447 0-13.98-5.373-13.98-11.5 0-.53-.447-.958-.999-.958s-.999.429-.999.958c0 7.148 7.466 13.417 15.978 13.417.552 0 .998-.429.998-.958 0-.53-.446-.959-.998-.959zM7.02 5.956c.178 0 .357-.045.52-.139 8.448-4.92 19.403-5.1 27.955-.563.484.257 1.09.089 1.358-.375a.938.938 0 0 0-.39-1.302A30.93 30.93 0 0 0 21.999 0C16.6.009 11.191 1.45 6.503 4.178a.94.94 0 0 0-.336 1.316c.19.298.517.462.854.462zm36.823 10.83C39.976 10.082 31.403 5.75 22 5.75S4.024 10.082.156 16.786a.94.94 0 0 0 .39 1.303 1.022 1.022 0 0 0 1.358-.375C5.424 11.611 13.314 7.667 22 7.667c8.687 0 16.576 3.944 20.096 10.047.184.317.523.494.874.494.164 0 .33-.038.484-.12a.94.94 0 0 0 .39-1.302zm-33.827 13.88c0-6.663 5.04-11.5 11.983-11.5 7.279 0 11.983 4.138 11.983 10.542 0 .53.447.959.999.959s.998-.429.998-.959c0-7.451-5.619-12.458-13.98-12.458-7.97 0-13.98 5.768-13.98 13.417 0 5.6 2.079 10.235 6.744 15.029.197.202.463.304.73.304.243 0 .49-.085.68-.258a.93.93 0 0 0 .05-1.355c-4.294-4.411-6.207-8.642-6.207-13.72zM22 11.5c-11.571 0-19.972 7.657-19.972 18.208 0 2.845.997 5.543 2.074 8.034.21.49.8.719 1.304.518.51-.203.751-.763.54-1.252-.998-2.309-1.92-4.79-1.92-7.3 0-9.592 7.391-16.291 17.974-16.291 10.247 0 17.974 7.416 17.974 17.25 0 2.642-2.239 4.791-4.992 4.791-2.754 0-4.993-2.15-4.993-4.791C29.989 26.153 26.704 23 22 23s-7.989 3.153-7.989 7.667c0 6.253 3.687 11.514 10.66 15.213.153.082.319.12.483.12.35 0 .692-.179.873-.495a.938.938 0 0 0-.39-1.302c-6.389-3.39-9.628-7.944-9.628-13.536 0-3.972 3.009-5.75 5.991-5.75 2.982 0 5.991 1.778 5.991 5.75 0 3.698 3.137 6.708 6.99 6.708 3.855 0 6.99-3.01 6.99-6.708C41.972 19.739 33.387 11.5 22 11.5z" transform="translate(22 21)"/>
        </g>
    </g>
</svg>
