<svg xmlns="http://www.w3.org/2000/svg" width="49" height="48" viewBox="0 0 49 48">
    <g fill="none" fill-rule="evenodd">
        <path d="M1 0h48v48H1z"/>
        <path fill="#FFF" d="M12.88 19.816c-.692-.434-1.345-1.03-1.96-1.79-.613-.759-.92-1.464-.92-2.115 0-.806.232-1.477.695-2.014.463-.538 1.124-.806 1.983-.806h24.643c.726 0 1.353.243 1.884.728.53.486.795 1.07.795 1.751 0 .816-.273 1.596-.82 2.34a7.68 7.68 0 0 1-2.043 1.906 14009.35 14009.35 0 0 0-7.834 5.036c-.112.073-.35.23-.712.473-.363.243-.664.44-.904.589-.24.15-.53.317-.87.503-.34.186-.662.326-.963.418-.301.093-.58.14-.837.14h-.034c-.256 0-.536-.047-.837-.14a5.255 5.255 0 0 1-.963-.418c-.34-.186-.63-.354-.87-.503a34.89 34.89 0 0 1-.904-.59c-.363-.242-.6-.4-.712-.472a851.04 851.04 0 0 0-4.386-2.828 782.29 782.29 0 0 1-3.432-2.208zm25.446 1.658A9.068 9.068 0 0 0 40 20.126V32.43c0 .682-.262 1.265-.787 1.75-.524.486-1.155.73-1.891.73H12.679c-.737 0-1.368-.244-1.892-.73-.525-.485-.787-1.068-.787-1.75V20.126a8.723 8.723 0 0 0 1.69 1.348c4.041 2.541 6.814 4.324 8.321 5.346.636.434 1.152.773 1.549 1.015.396.243.923.49 1.582.744.658.253 1.272.38 1.841.38h.034c.57 0 1.183-.127 1.841-.38.659-.253 1.186-.501 1.582-.744a39.35 39.35 0 0 0 1.549-1.015c1.897-1.27 4.676-3.053 8.337-5.346z"/>
    </g>
</svg>
