<svg xmlns="http://www.w3.org/2000/svg" width="60" height="60" viewBox="0 0 60 60">
    <defs>
        <radialGradient id="a" cx="100%" cy="100%" r="115.371%" fx="100%" fy="100%" gradientTransform="matrix(-.58361 -.71382 .59485 -.70033 .989 2.414)">
            <stop offset="0%" stop-color="#D41879"/>
            <stop offset="100%" stop-color="#2A00D7"/>
        </radialGradient>
    </defs>
    <path fill="url(#a)" fill-rule="evenodd" d="M27 20h6a1.001 1.001 0 0 1 0 2h-6a1.001 1.001 0 0 1 0-2zm0 4h6c1.654 0 3-1.346 3-3s-1.346-3-3-3h-6c-1.654 0-3 1.346-3 3s1.346 3 3 3zm7 24c-3.007 0-7.063-1.721-10.324-3.104-2.449-1.038-4.393-1.858-5.676-1.909v-9.373c.076.02.15.049.232.05 5.59.078 8.288 1.81 10.257 3.074 1.149.737 2.033 1.301 3.151 1.301 1.292-.021 5.214-.086 6.745 1.42.168.165.29.347.388.541H26a1 1 0 1 0 0 2h14c2.643 0 5.11-1.817 7.094-3.277C48.19 37.915 49.433 37 50 37c1.595 0 2 .196 2 2 0 2.065-12.113 9-18 9zM8 30h8v16H8V30zm42 4.998c-1.225 0-2.49.929-4.092 2.108-1.571 1.158-3.322 2.442-5.038 2.792a3.956 3.956 0 0 0-1.083-1.884C37.88 36.138 34.212 36 31.606 36h-.013c-.489 0-1.167-.415-2.023-.965-2.05-1.316-5.148-3.285-11.31-3.371-.09.003-.174.032-.26.058V29a1 1 0 0 0-1-1H7a1 1 0 0 0-1 1v18a1 1 0 0 0 1 1h10a1 1 0 0 0 1-1v-2.009c.934.071 2.94.919 4.896 1.747C26.322 48.191 30.587 50 34 50c5.647 0 20-6.749 20-11.001 0-2.804-1.196-4.001-4-4.001zM43 30h-6a1.001 1.001 0 0 1 0-2h6a1.001 1.001 0 0 1 0 2zm0-4h-6c-1.654 0-3 1.346-3 3s1.346 3 3 3h6c1.654 0 3-1.346 3-3s-1.346-3-3-3zm-6-14h6a1.001 1.001 0 0 1 0 2h-6a1.001 1.001 0 0 1 0-2zm0 4h6c1.654 0 3-1.346 3-3s-1.346-3-3-3h-6c-1.654 0-3 1.346-3 3s1.346 3 3 3z"/>
</svg>
