
<svg xmlns="http://www.w3.org/2000/svg" width="88" height="88" viewBox="0 0 88 88">
    <defs>
        <linearGradient id="a" x1="1.269%" y1="50%" y2="50%">
            <stop offset="0%" stop-color="#9F7870"/>
            <stop offset="27.828%" stop-color="#D39686"/>
            <stop offset="49.247%" stop-color="#F2CCA9"/>
            <stop offset="76.038%" stop-color="#C09576"/>
            <stop offset="100%" stop-color="#D89D75"/>
        </linearGradient>
    </defs>
    <g fill="none" fill-rule="evenodd" stroke="url(#a)" stroke-width="2">
        <g stroke-linecap="round" stroke-linejoin="round">
            <path d="M37.912 21.476l-.283 1.45-1.083 5.308c-1.73.667-3.3 1.613-4.717 2.735l-5.29-1.786-1.422-.445-.737 1.282-3.642 6.147-.737 1.28 1.08.953 4.092 3.515c-.148.92-.339 1.83-.339 2.795 0 .966.19 1.876.339 2.795L21.08 51.02l-1.079.953.737 1.28 3.642 6.148.737 1.284 1.421-.448 5.29-1.785c1.419 1.121 2.988 2.067 4.718 2.735l1.083 5.307.283 1.45h10.235l.286-1.45 1.08-5.307c1.73-.668 3.3-1.614 4.717-2.735l5.29 1.785 1.422.448.74-1.284 3.639-6.147.74-1.281-1.082-.953-4.093-3.515c.151-.92.339-1.829.339-2.795s-.188-1.875-.34-2.795L64.98 38.4l1.082-.952-.74-1.281-3.639-6.147-.74-1.282-1.422.445-5.29 1.786c-1.418-1.122-2.987-2.068-4.718-2.735l-1.079-5.308-.286-1.45H37.912z"/>
            <path d="M49.61 44.71c0 3.665-2.948 6.639-6.58 6.639s-6.58-2.974-6.58-6.639c0-3.664 2.948-6.638 6.58-6.638s6.58 2.974 6.58 6.638z"/>
        </g>
        <circle cx="44" cy="44" r="43"/>
    </g>
</svg>
