<svg xmlns="http://www.w3.org/2000/svg" width="88" height="88" viewBox="0 0 88 88">
    <defs>
        <radialGradient id="a" cx="77.546%" cy="20.309%" r="122.816%" fx="77.546%" fy="20.309%">
            <stop offset="0%" stop-color="#F8EEA4"/>
            <stop offset="100%" stop-color="#B9760B"/>
        </radialGradient>
    </defs>
    <path fill="url(#a)" fill-rule="nonzero" d="M42.12 49.228l11.196-11.197a1 1 0 1 1 1.415 1.414L42.826 51.35a.997.997 0 0 1-1.414 0l-4.762-4.762a1 1 0 0 1 1.414-1.414l4.055 4.054zM44 88C19.7 88 0 68.3 0 44S19.7 0 44 0s44 19.7 44 44-19.7 44-44 44zm.5-22.072c-12.387 0-22.428-10.041-22.428-22.428S32.113 21.072 44.5 21.072 66.928 31.113 66.928 43.5 56.887 65.928 44.5 65.928zm0-2c11.282 0 20.428-9.146 20.428-20.428S55.782 23.072 44.5 23.072 24.072 32.218 24.072 43.5 33.218 63.928 44.5 63.928zM44 86c23.196 0 42-18.804 42-42S67.196 2 44 2 2 20.804 2 44s18.804 42 42 42z"/>
</svg>
