
<svg xmlns="http://www.w3.org/2000/svg" width="88" height="88" viewBox="0 0 88 88">
    <defs>
        <linearGradient id="a" x1="1.269%" y1="50%" y2="50%">
            <stop offset="0%" stop-color="#9F7870"/>
            <stop offset="27.828%" stop-color="#D39686"/>
            <stop offset="49.247%" stop-color="#F2CCA9"/>
            <stop offset="76.038%" stop-color="#C09576"/>
            <stop offset="100%" stop-color="#D89D75"/>
        </linearGradient>
    </defs>
    <g fill="none" fill-rule="evenodd">
        <path fill="url(#a)" d="M43.302 19c-4.452 0-8.534 1.752-11.501 4.946-2.896 3.112-4.494 7.308-4.494 11.822v1.885c-3.514.238-6.307 3.165-6.307 6.74v2.948c0 3.72 3.029 6.751 6.751 6.751h3.802a1.24 1.24 0 0 0 1.237-1.238V38.87a1.24 1.24 0 0 0-1.237-1.237H29.78v-1.864c0-8.153 5.814-14.294 13.512-14.294h1.556c7.709 0 13.511 6.141 13.511 14.294v1.864h-1.772c-.681 0-1.238.557-1.238 1.237v13.976c0 .68.557 1.236 1.238 1.236h1.731c-.505 6.451-4.947 7.946-7.009 8.286a4.347 4.347 0 0 0-4.132-2.999h-3.091a4.347 4.347 0 0 0-4.339 4.34c0 2.39 1.948 4.348 4.339 4.348h3.101a4.35 4.35 0 0 0 4.184-3.195c1.011-.144 2.608-.505 4.195-1.432 2.237-1.309 4.886-3.979 5.236-9.358a6.758 6.758 0 0 0 6.337-6.74v-2.949c.011-3.564-2.772-6.502-6.286-6.729v-1.885c0-4.514-1.597-8.71-4.493-11.822C53.392 20.752 49.31 19 44.858 19h-1.556zm14.531 21.107h2.566a4.279 4.279 0 0 1 4.278 4.275v2.95a4.28 4.28 0 0 1-4.278 4.276h-2.566v-11.5zm-34.339 7.224v-2.949a4.279 4.279 0 0 1 4.277-4.275h2.566v11.501h-2.566a4.28 4.28 0 0 1-4.277-4.277zM42.22 63.717c0-1.03.835-1.866 1.866-1.866h3.101a1.865 1.865 0 1 1 0 3.732h-3.101a1.865 1.865 0 0 1-1.866-1.866z"/>
        <circle cx="44" cy="44" r="43" stroke="url(#a)" stroke-width="2"/>
    </g>
</svg>
