<svg xmlns="http://www.w3.org/2000/svg" width="60" height="60" viewBox="0 0 60 60">
    <defs>
        <radialGradient id="a" cx="100%" cy="100%" r="115.371%" fx="100%" fy="100%" gradientTransform="scale(-1 -.92082) rotate(53.025 2.09 -2.048)">
            <stop offset="0%" stop-color="#D41879"/>
            <stop offset="100%" stop-color="#2A00D7"/>
        </radialGradient>
    </defs>
    <path fill="url(#a)" fill-rule="evenodd" d="M50.163 50.258c0 .881-1.43 1.742-2.497 1.742H12.682c-1.121 0-2.5-1.09-2.5-1.977l-.006-.121c-.026-.211-.041-.554-.022-.657 1.305-5.38 9.567-22.007 11.19-25.245h17.66c1.624 3.228 9.883 19.774 11.184 25.138.022.133.01.629-.025 1.12zm1.972-1.574C50.64 42.518 40.924 23.359 40.51 22.547L40.233 22h-20.12l-.277.549c-.414.816-10.13 20.059-11.625 26.224-.107.44-.234.973-.207 1.227 0 2 2.672 4 4.678 4h34.984c2.123 0 4.497-1.601 4.494-3.66.035-.434.079-1.227-.025-1.656zM31.389 37.086l-1.377-.682c-2.461-1.216-3.042-1.558-3.042-3.047 0-1.919 1.697-2.602 3.286-2.602.757 0 3.227.187 3.227 2.602a1 1 0 1 0 2 0c0-2.523-1.776-4.269-4.48-4.545V27.64a1 1 0 1 0-2 0v1.228c-2.454.427-4.033 2.12-4.033 4.489 0 2.788 1.743 3.649 4.157 4.84l1.377.684c2.459 1.212 3.039 1.555 3.039 3.045 0 2.386-2.517 2.572-3.287 2.572-.772 0-3.286-.186-3.286-2.572a1 1 0 1 0-2 0c0 2.353 1.579 4.035 4.034 4.46v1.255a1 1 0 1 0 2 0v-1.199c2.738-.272 4.539-2.007 4.539-4.516 0-2.791-1.742-3.651-4.154-4.84zm-14.28-26.734c.489-1.303 2.026-2.212 3.739-2.212 1.082 0 4.545.446 6.06 5.86h-2.681c-2.274-.25-6.155-1.172-7.05-2.621-.194-.317-.216-.634-.068-1.027zm6.959 5.642c.036.004.07.006.105.006h4.02a1 1 0 0 0 .92-1.392C27.797 8.369 24.149 6 21.003 6c-2.568 0-4.98 1.55-5.767 3.648-.365.975-.283 1.937.24 2.784 1.71 2.763 7.893 3.489 8.592 3.562zm15.27-7.854c1.714 0 3.252.909 3.74 2.212.148.393.127.71-.068 1.027-.897 1.449-4.776 2.371-7.05 2.621h-2.681c1.514-5.414 4.977-5.86 6.059-5.86zM32.014 16h4c.035 0 .07-.002.104-.006.7-.073 6.884-.799 8.593-3.562.522-.847.606-1.809.24-2.784C44.164 7.55 41.574 6 39.004 6c-3.178 0-6.693 2.416-7.971 8.804a.999.999 0 0 0 .98 1.196zm-12.076 2a1 1 0 0 0 0 2h20a1 1 0 1 0 0-2h-20z"/>
</svg>
