<?xml version="1.0" encoding="utf-8"?>
<!-- Generator: Adobe Illustrator 21.1.0, SVG Export Plug-In . SVG Version: 6.00 Build 0)  -->
<svg version="1.1" id="圖層_1" xmlns="http://www.w3.org/2000/svg" xmlns:xlink="http://www.w3.org/1999/xlink" x="0px" y="0px"
	 viewBox="0 0 21 20" style="enable-background:new 0 0 21 20;" xml:space="preserve">
<style type="text/css">
	.st0{fill:#4A4A4A;}
</style>
<title>icon-change</title>
<desc>Created with Sketch.</desc>
<g id="Symbols">
	<g id="Betting_x2F_betting" transform="translate(-227.000000, -161.000000)">
		<g id="换一注" transform="translate(212.000000, 155.000000)">
			<g id="icon-change" transform="translate(15.000000, 6.000000)">
				<path class="st0" d="M20.6,9l-3,3.6l-3-3.6h2.5c-0.5-3.4-3.4-6-6.9-6C7.1,3,4.5,5,3.6,7.9C3.4,7.7,3.2,7.6,2.9,7.6
					c-0.1,0-0.2,0-0.3,0C3.6,4.4,6.7,2,10.3,2c4.1,0,7.4,3,7.9,7H20.6z M0,12.1l3-3.6l3,3.6H3.6c0.9,2.9,3.5,4.9,6.7,4.9
					c2.7,0,5-1.5,6.2-3.8c0.2,0.3,0.5,0.4,0.8,0.4c0,0,0.1,0,0.1,0c-1.3,2.6-4,4.3-7.1,4.3c-3.7,0-6.8-2.5-7.7-5.9H0z"/>
			</g>
		</g>
	</g>
</g>
</svg>
