<?xml version="1.0" encoding="UTF-8"?>
<svg width="24px" height="24px" viewBox="0 0 24 24" version="1.1" xmlns="http://www.w3.org/2000/svg" xmlns:xlink="http://www.w3.org/1999/xlink">
    <!-- Generator: Sketch 48.2 (47327) - http://www.bohemiancoding.com/sketch -->
    <title>icon_adclose</title>
    <desc>Created with Sketch.</desc>
    <defs></defs>
    <g id="主页" stroke="none" stroke-width="1" fill="none" fill-rule="evenodd">
        <g id="Group-9" transform="translate(-1447.000000, 0.000000)" fill-rule="nonzero">
            <g id="Group" transform="translate(1447.000000, 0.000000)">
                <path d="M0,0 L24,0 L24,24 L0,24 L0,0 Z M3,3 L3,21 L21,21 L21,3 L3,3 Z M19.7781746,16.9497475 L16.9497475,19.7781746 L12,14.8284271 L7.05025253,19.7781746 L4.22182541,16.9497475 L9.17157288,12 L4.22182541,7.05025253 L7.05025253,4.22182541 L12,9.17157288 L16.9497475,4.22182541 L19.7781746,7.05025253 L14.8284271,12 L19.7781746,16.9497475 Z" id="Rectangle-2" fill-opacity="0.200000018" fill="#000000"></path>
                <path d="M1,1 L23,1 L23,23 L1,23 L1,1 Z M2,2 L2,22 L22,22 L22,2 L2,2 Z M13.4142136,12 L18.363961,16.9497475 L16.9497475,18.363961 L12,13.4142136 L7.05025253,18.363961 L5.63603897,16.9497475 L10.5857864,12 L5.63603897,7.05025253 L7.05025253,5.63603897 L12,10.5857864 L16.9497475,5.63603897 L18.363961,7.05025253 L13.4142136,12 Z" id="Rectangle-2" fill="#FFFFFF"></path>
            </g>
        </g>
    </g>
</svg>