<?xml version="1.0" encoding="UTF-8"?>
<svg width="15px" height="19px" viewBox="0 0 15 19" version="1.1" xmlns="http://www.w3.org/2000/svg" xmlns:xlink="http://www.w3.org/1999/xlink">
    <!-- Generator: Sketch 48.1 (47250) - http://www.bohemiancoding.com/sketch -->
    <title>Combined Shape</title>
    <desc>Created with Sketch.</desc>
    <defs></defs>
    <g id="rank" stroke="none" stroke-width="1" fill="none" fill-rule="evenodd" transform="translate(-23.000000, -9.000000)">
        <g fill="#FFFFFF" fill-rule="nonzero" id="icon_trophy">
            <g transform="translate(23.000000, 9.000000)">
                <path d="M14.8964132,3 L2,3 L2,4 L14.8001649,4 C14.6342805,5.45721557 14.3287268,7.07819739 13.7660072,8.05250288 C12.5539185,10.1511408 10.0301931,11.2272727 10.0301931,11.2272727 L9.56088131,14.8074439 L12.4360544,15.434919 C12.8889837,15.5337659 13.241684,16.0023262 13.2243214,16.4683539 L13.1300011,19 L1.91811693,19 L1.8355444,16.4602705 C1.82015273,15.9868603 2.17603409,15.5188369 2.62896274,15.4152461 L5.50829491,14.7567044 L5.10345336,11.2272727 C5.10345336,11.2272727 2.54408753,10.2490696 1.24399027,8.05250288 C0.593068426,6.95274419 0.282739717,5.15345016 0.135121435,3.63077465 C-0.012100786,2.11218449 0.000255254187,0.86436417 0.000255254187,0.86436417 C-0.0044207619,0.38698902 0.363230242,0 0.821078085,0 L14.1889194,0 C14.6469233,0 15.0110314,0.382819548 14.9997445,0.858091977 C14.9997445,0.858091977 14.9952889,1.52574893 14.9342906,2.474288 C14.9235483,2.64133244 14.9110207,2.8172544 14.8964119,3 Z" id="Combined-Shape"></path>
            </g>
        </g>
    </g>
</svg>