<?xml version="1.0" encoding="utf-8"?>
<!-- Generator: Adobe Illustrator 21.1.0, SVG Export Plug-In . SVG Version: 6.00 Build 0)  -->
<svg version="1.1" id="圖層_1" xmlns="http://www.w3.org/2000/svg" xmlns:xlink="http://www.w3.org/1999/xlink" x="0px" y="0px"
	 viewBox="0 0 28 27" style="enable-background:new 0 0 28 27;" xml:space="preserve">
<style type="text/css">
	.st0{fill:#FFB200;}
</style>
<title>star_light</title>
<desc>Created with Sketch.</desc>
<g id="tony-case">
	<g id="star_light">
		<path id="Shape" class="st0" d="M27.9,10.4c0-0.4-0.3-0.7-0.9-0.8l-8.4-1.2l-3.8-7.7C14.6,0.2,14.3,0,14,0c-0.3,0-0.6,0.2-0.8,0.7
			L9.4,8.4L0.9,9.6C0.3,9.7,0,10,0,10.4c0,0.2,0.1,0.5,0.4,0.8l6.1,6l-1.4,8.5c0,0.2,0,0.3,0,0.3c0,0.2,0.1,0.4,0.2,0.6
			c0.1,0.2,0.3,0.2,0.5,0.2c0.2,0,0.4-0.1,0.7-0.2l7.5-4l7.5,4c0.2,0.1,0.5,0.2,0.7,0.2c0.2,0,0.4-0.1,0.5-0.2
			c0.1-0.2,0.2-0.4,0.2-0.6c0-0.1,0-0.3,0-0.3l-1.4-8.5l6.1-6C27.8,10.9,27.9,10.7,27.9,10.4z"/>
	</g>
</g>
</svg>
