<svg xmlns="http://www.w3.org/2000/svg" width="14" height="12" viewBox="0 0 14 12">
    <path fill="#FFF" fill-rule="evenodd" d="M1.05 9.6C.47 9.6 0 10.138 0 10.8c0 .662.47 1.2 1.05 1.2.58 0 1.05-.538 1.05-1.2 0-.662-.47-1.2-1.05-1.2zM3.5 12H14v-1.6H3.5V12zM1.05 4.8C.47 4.8 0 5.338 0 6c0 .662.47 1.2 1.05 1.2.58 0 1.05-.538 1.05-1.2 0-.662-.47-1.2-1.05-1.2zM3.5 7.2H14V5.6H3.5v1.6zM1.05 0C.47 0 0 .538 0 1.2c0 .662.47 1.2 1.05 1.2.58 0 1.05-.538 1.05-1.2C2.1.538 1.63 0 1.05 0zM3.5 2.4H14V.8H3.5v1.6z"/>
</svg>
