<?xml version="1.0" encoding="utf-8"?>
<!-- Generator: Adobe Illustrator 21.1.0, SVG Export Plug-In . SVG Version: 6.00 Build 0)  -->
<svg version="1.1" id="圖層_1" xmlns="http://www.w3.org/2000/svg" xmlns:xlink="http://www.w3.org/1999/xlink" x="0px" y="0px"
	 viewBox="0 0 14 14" style="enable-background:new 0 0 14 14;" xml:space="preserve">
<style type="text/css">
	.st0{fill:#F57104;}
</style>
<title>icon_warring</title>
<desc>Created with Sketch.</desc>
<g id="_x2D_---">
	<g id="icon_warring">
		<path id="Shape" class="st0" d="M7,0C3.1,0,0,3.1,0,7s3.1,7,7,7s7-3.1,7-7S10.9,0,7,0z M7.5,11c0,0.3-0.2,0.5-0.5,0.5
			S6.5,11.3,6.5,11v-0.5C6.5,10.2,6.7,10,7,10s0.5,0.2,0.5,0.5V11z M7.5,8.9c0,0.3-0.2,0.5-0.5,0.5S6.5,9.2,6.5,8.9V3
			c0-0.3,0.2-0.5,0.5-0.5S7.5,2.7,7.5,3V8.9z"/>
	</g>
</g>
</svg>
